<svg width="172" height="226" viewBox="0 0 172 226" fill="none" xmlns="http://www.w3.org/2000/svg">
<rect width="172" height="226" fill="white"/>
<mask id="mask0_768_2" style="mask-type:alpha" maskUnits="userSpaceOnUse" x="0" y="0" width="172" height="226">
<rect width="172" height="226" rx="20" fill="white"/>
</mask>
<g mask="url(#mask0_768_2)">
<path d="M29.9276 21.892V19.8636H39.4844V21.892H35.9219V31.5H33.4901V21.892H29.9276ZM41.0128 31.5V22.7727H43.4332V31.5H41.0128ZM42.2287 21.6477C41.8688 21.6477 41.5601 21.5284 41.3026 21.2898C41.0488 21.0473 40.9219 20.7576 40.9219 20.4205C40.9219 20.0871 41.0488 19.8011 41.3026 19.5625C41.5601 19.3201 41.8688 19.1989 42.2287 19.1989C42.5885 19.1989 42.8954 19.3201 43.1491 19.5625C43.4067 19.8011 43.5355 20.0871 43.5355 20.4205C43.5355 20.7576 43.4067 21.0473 43.1491 21.2898C42.8954 21.5284 42.5885 21.6477 42.2287 21.6477ZM45.3722 31.5V22.7727H47.679V24.3125H47.7812C47.9631 23.8011 48.2661 23.3977 48.6903 23.1023C49.1146 22.8068 49.6222 22.6591 50.2131 22.6591C50.8116 22.6591 51.321 22.8087 51.7415 23.108C52.1619 23.4034 52.4422 23.8049 52.5824 24.3125H52.6733C52.8513 23.8125 53.1733 23.4129 53.6392 23.1136C54.1089 22.8106 54.6638 22.6591 55.304 22.6591C56.1184 22.6591 56.7794 22.9186 57.2869 23.4375C57.7983 23.9527 58.054 24.6837 58.054 25.6307V31.5H55.6392V26.108C55.6392 25.6231 55.5104 25.2595 55.2528 25.017C54.9953 24.7746 54.6733 24.6534 54.2869 24.6534C53.8475 24.6534 53.5047 24.7936 53.2585 25.0739C53.0123 25.3504 52.8892 25.7159 52.8892 26.1705V31.5H50.5426V26.0568C50.5426 25.6288 50.4195 25.2879 50.1733 25.0341C49.9309 24.7803 49.6108 24.6534 49.2131 24.6534C48.9441 24.6534 48.7017 24.7216 48.4858 24.858C48.2737 24.9905 48.1051 25.178 47.9801 25.4205C47.8551 25.6591 47.7926 25.9394 47.7926 26.2614V31.5H45.3722ZM63.9432 31.6705C63.0455 31.6705 62.2727 31.4886 61.625 31.125C60.9811 30.7576 60.4848 30.2386 60.1364 29.5682C59.7879 28.8939 59.6136 28.0966 59.6136 27.1761C59.6136 26.2784 59.7879 25.4905 60.1364 24.8125C60.4848 24.1345 60.9754 23.6061 61.608 23.2273C62.2443 22.8485 62.9905 22.6591 63.8466 22.6591C64.4223 22.6591 64.9583 22.7519 65.4545 22.9375C65.9545 23.1193 66.3902 23.3939 66.7614 23.7614C67.1364 24.1288 67.428 24.5909 67.6364 25.1477C67.8447 25.7008 67.9489 26.3485 67.9489 27.0909V27.7557H60.5795V26.2557H65.6705C65.6705 25.9072 65.5947 25.5985 65.4432 25.3295C65.2917 25.0606 65.0814 24.8504 64.8125 24.6989C64.5473 24.5436 64.2386 24.4659 63.8864 24.4659C63.5189 24.4659 63.1932 24.5511 62.9091 24.7216C62.6288 24.8883 62.4091 25.1136 62.25 25.3977C62.0909 25.678 62.0095 25.9905 62.0057 26.3352V27.7614C62.0057 28.1932 62.0852 28.5663 62.2443 28.8807C62.4072 29.1951 62.6364 29.4375 62.9318 29.608C63.2273 29.7784 63.5777 29.8636 63.983 29.8636C64.2519 29.8636 64.4981 29.8258 64.7216 29.75C64.9451 29.6742 65.1364 29.5606 65.2955 29.4091C65.4545 29.2576 65.5758 29.072 65.6591 28.8523L67.8977 29C67.7841 29.5379 67.5511 30.0076 67.1989 30.4091C66.8504 30.8068 66.3996 31.1174 65.8466 31.3409C65.2973 31.5606 64.6629 31.6705 63.9432 31.6705ZM71.9489 19.8636V31.5H69.5284V19.8636H71.9489ZM73.8878 31.5V22.7727H76.3082V31.5H73.8878ZM75.1037 21.6477C74.7438 21.6477 74.4351 21.5284 74.1776 21.2898C73.9238 21.0473 73.7969 20.7576 73.7969 20.4205C73.7969 20.0871 73.9238 19.8011 74.1776 19.5625C74.4351 19.3201 74.7438 19.1989 75.1037 19.1989C75.4635 19.1989 75.7704 19.3201 76.0241 19.5625C76.2817 19.8011 76.4105 20.0871 76.4105 20.4205C76.4105 20.7576 76.2817 21.0473 76.0241 21.2898C75.7704 21.5284 75.4635 21.6477 75.1037 21.6477ZM80.6676 26.4545V31.5H78.2472V22.7727H80.554V24.3125H80.6562C80.8494 23.8049 81.1733 23.4034 81.6278 23.108C82.0824 22.8087 82.6335 22.6591 83.2812 22.6591C83.8873 22.6591 84.4157 22.7917 84.8665 23.0568C85.3172 23.322 85.6676 23.7008 85.9176 24.1932C86.1676 24.6818 86.2926 25.2652 86.2926 25.9432V31.5H83.8722V26.375C83.8759 25.8409 83.7396 25.4242 83.4631 25.125C83.1866 24.822 82.8059 24.6705 82.321 24.6705C81.9953 24.6705 81.7074 24.7405 81.4574 24.8807C81.2112 25.0208 81.018 25.2254 80.8778 25.4943C80.7415 25.7595 80.6714 26.0795 80.6676 26.4545ZM92.1776 31.6705C91.2798 31.6705 90.5071 31.4886 89.8594 31.125C89.2154 30.7576 88.7192 30.2386 88.3707 29.5682C88.0223 28.8939 87.848 28.0966 87.848 27.1761C87.848 26.2784 88.0223 25.4905 88.3707 24.8125C88.7192 24.1345 89.2098 23.6061 89.8423 23.2273C90.4787 22.8485 91.2249 22.6591 92.081 22.6591C92.6567 22.6591 93.1927 22.7519 93.6889 22.9375C94.1889 23.1193 94.6245 23.3939 94.9957 23.7614C95.3707 24.1288 95.6624 24.5909 95.8707 25.1477C96.0791 25.7008 96.1832 26.3485 96.1832 27.0909V27.7557H88.8139V26.2557H93.9048C93.9048 25.9072 93.8291 25.5985 93.6776 25.3295C93.526 25.0606 93.3158 24.8504 93.0469 24.6989C92.7817 24.5436 92.473 24.4659 92.1207 24.4659C91.7533 24.4659 91.4276 24.5511 91.1435 24.7216C90.8632 24.8883 90.6435 25.1136 90.4844 25.3977C90.3253 25.678 90.2438 25.9905 90.2401 26.3352V27.7614C90.2401 28.1932 90.3196 28.5663 90.4787 28.8807C90.6416 29.1951 90.8707 29.4375 91.1662 29.608C91.4616 29.7784 91.812 29.8636 92.2173 29.8636C92.4863 29.8636 92.7325 29.8258 92.956 29.75C93.1795 29.6742 93.3707 29.5606 93.5298 29.4091C93.6889 29.2576 93.8101 29.072 93.8935 28.8523L96.1321 29C96.0185 29.5379 95.7855 30.0076 95.4332 30.4091C95.0848 30.8068 94.634 31.1174 94.081 31.3409C93.5317 31.5606 92.8973 31.6705 92.1776 31.6705ZM103.614 19.8636L106.426 28.7045H106.534L109.352 19.8636H112.08L108.068 31.5H104.898L100.881 19.8636H103.614ZM113.435 31.5V22.7727H115.855V31.5H113.435ZM114.651 21.6477C114.291 21.6477 113.982 21.5284 113.724 21.2898C113.471 21.0473 113.344 20.7576 113.344 20.4205C113.344 20.0871 113.471 19.8011 113.724 19.5625C113.982 19.3201 114.291 19.1989 114.651 19.1989C115.01 19.1989 115.317 19.3201 115.571 19.5625C115.829 19.8011 115.957 20.0871 115.957 20.4205C115.957 20.7576 115.829 21.0473 115.571 21.2898C115.317 21.5284 115.01 21.6477 114.651 21.6477ZM121.771 31.6705C120.874 31.6705 120.101 31.4886 119.453 31.125C118.809 30.7576 118.313 30.2386 117.964 29.5682C117.616 28.8939 117.442 28.0966 117.442 27.1761C117.442 26.2784 117.616 25.4905 117.964 24.8125C118.313 24.1345 118.804 23.6061 119.436 23.2273C120.072 22.8485 120.819 22.6591 121.675 22.6591C122.25 22.6591 122.786 22.7519 123.283 22.9375C123.783 23.1193 124.218 23.3939 124.589 23.7614C124.964 24.1288 125.256 24.5909 125.464 25.1477C125.673 25.7008 125.777 26.3485 125.777 27.0909V27.7557H118.408V26.2557H123.499C123.499 25.9072 123.423 25.5985 123.271 25.3295C123.12 25.0606 122.91 24.8504 122.641 24.6989C122.375 24.5436 122.067 24.4659 121.714 24.4659C121.347 24.4659 121.021 24.5511 120.737 24.7216C120.457 24.8883 120.237 25.1136 120.078 25.3977C119.919 25.678 119.838 25.9905 119.834 26.3352V27.7614C119.834 28.1932 119.913 28.5663 120.072 28.8807C120.235 29.1951 120.464 29.4375 120.76 29.608C121.055 29.7784 121.406 29.8636 121.811 29.8636C122.08 29.8636 122.326 29.8258 122.55 29.75C122.773 29.6742 122.964 29.5606 123.124 29.4091C123.283 29.2576 123.404 29.072 123.487 28.8523L125.726 29C125.612 29.5379 125.379 30.0076 125.027 30.4091C124.679 30.8068 124.228 31.1174 123.675 31.3409C123.125 31.5606 122.491 31.6705 121.771 31.6705ZM129.016 31.5L126.641 22.7727H129.089L130.442 28.6364H130.521L131.93 22.7727H134.334L135.766 28.6023H135.839L137.169 22.7727H139.612L137.243 31.5H134.68L133.18 26.0114H133.072L131.572 31.5H129.016Z" fill="black"/>
<line x1="56.5918" y1="48" x2="56.5918" y2="226.021" stroke="black" stroke-opacity="0.2"/>
<path d="M74.5994 58.0087C74.5539 57.6053 74.3664 57.2928 74.0369 57.0712C73.7073 56.8468 73.2925 56.7346 72.7925 56.7346C72.4346 56.7346 72.1249 56.7914 71.8636 56.905C71.6022 57.0158 71.3991 57.1692 71.2542 57.3652C71.1121 57.5584 71.0411 57.7786 71.0411 58.0257C71.0411 58.2331 71.0894 58.4121 71.186 58.5627C71.2854 58.7132 71.4147 58.8397 71.5738 58.9419C71.7357 59.0414 71.909 59.1252 72.0937 59.1934C72.2783 59.2587 72.4559 59.3127 72.6264 59.3553L73.4786 59.5769C73.757 59.6451 74.0425 59.7374 74.3352 59.8539C74.6278 59.9703 74.8991 60.1238 75.1491 60.3141C75.3991 60.5044 75.6008 60.7402 75.7542 61.0215C75.9104 61.3027 75.9886 61.6394 75.9886 62.0314C75.9886 62.5257 75.8607 62.9647 75.605 63.3482C75.3522 63.7317 74.9843 64.0343 74.5014 64.2559C74.0212 64.4775 73.4403 64.5882 72.7585 64.5882C72.105 64.5882 71.5397 64.4846 71.0624 64.2772C70.5852 64.0698 70.2116 63.7757 69.9417 63.3951C69.6718 63.0115 69.5227 62.557 69.4943 62.0314H70.8153C70.8408 62.3468 70.9431 62.6096 71.1221 62.8198C71.3039 63.0272 71.5354 63.182 71.8167 63.2843C72.1008 63.3837 72.4119 63.4334 72.7499 63.4334C73.1221 63.4334 73.4531 63.3752 73.7428 63.2587C74.0354 63.1394 74.2656 62.9746 74.4332 62.7644C74.6008 62.5513 74.6846 62.3027 74.6846 62.0186C74.6846 61.7601 74.6107 61.5485 74.463 61.3837C74.3181 61.2189 74.1207 61.0826 73.8707 60.9746C73.6235 60.8667 73.3437 60.7715 73.0312 60.6891L71.9999 60.4078C71.3011 60.2175 70.7471 59.9377 70.338 59.5684C69.9318 59.199 69.7286 58.7104 69.7286 58.1024C69.7286 57.5996 69.865 57.1607 70.1377 56.7857C70.4104 56.4107 70.7798 56.1195 71.2457 55.9121C71.7116 55.7019 72.2371 55.5968 72.8224 55.5968C73.4133 55.5968 73.9346 55.7005 74.3863 55.9078C74.8408 56.1152 75.1988 56.4007 75.4602 56.7644C75.7215 57.1252 75.8579 57.5399 75.8693 58.0087H74.5994ZM81.6061 61.7289V57.8979H82.8845V64.4434H81.6317V63.3098H81.5635C81.4129 63.6593 81.1715 63.9505 80.8391 64.1834C80.5095 64.4135 80.099 64.5286 79.6075 64.5286C79.1871 64.5286 78.8149 64.4363 78.4911 64.2516C78.17 64.0641 77.9172 63.7871 77.7325 63.4206C77.5507 63.0542 77.4598 62.601 77.4598 62.0613V57.8979H78.734V61.9078C78.734 62.3539 78.8575 62.709 79.1047 62.9732C79.3519 63.2374 79.6729 63.3695 80.0678 63.3695C80.3064 63.3695 80.5436 63.3098 80.7794 63.1905C81.018 63.0712 81.2155 62.8908 81.3717 62.6493C81.5308 62.4078 81.609 62.101 81.6061 61.7289ZM84.5965 64.4434V57.8979H85.8195V58.9632H85.9005C86.0369 58.6025 86.2599 58.3212 86.5695 58.1195C86.8792 57.915 87.2499 57.8127 87.6818 57.8127C88.1193 57.8127 88.4857 57.915 88.7812 58.1195C89.0795 58.324 89.2996 58.6053 89.4417 58.9632H89.5099C89.6661 58.6138 89.9147 58.3354 90.2556 58.128C90.5965 57.9178 91.0028 57.8127 91.4744 57.8127C92.0681 57.8127 92.5525 57.9988 92.9275 58.3709C93.3053 58.7431 93.4943 59.3042 93.4943 60.0542V64.4434H92.2201V60.1735C92.2201 59.7303 92.0994 59.4093 91.8579 59.2104C91.6164 59.0115 91.3281 58.9121 90.9928 58.9121C90.5781 58.9121 90.2556 59.04 90.0255 59.2956C89.7954 59.5485 89.6803 59.8738 89.6803 60.2715V64.4434H88.4104V60.0925C88.4104 59.7374 88.2996 59.4519 88.0781 59.236C87.8565 59.0201 87.5681 58.9121 87.213 58.9121C86.9715 58.9121 86.7485 58.976 86.544 59.1039C86.3423 59.2289 86.1789 59.4036 86.0539 59.628C85.9318 59.8525 85.8707 60.1124 85.8707 60.4078V64.4434H84.5965ZM95.202 64.4434V57.8979H96.425V58.9632H96.506C96.6423 58.6025 96.8653 58.3212 97.175 58.1195C97.4847 57.915 97.8554 57.8127 98.2872 57.8127C98.7247 57.8127 99.0912 57.915 99.3867 58.1195C99.6849 58.324 99.9051 58.6053 100.047 58.9632H100.115C100.272 58.6138 100.52 58.3354 100.861 58.128C101.202 57.9178 101.608 57.8127 102.08 57.8127C102.674 57.8127 103.158 57.9988 103.533 58.3709C103.911 58.7431 104.1 59.3042 104.1 60.0542V64.4434H102.826V60.1735C102.826 59.7303 102.705 59.4093 102.463 59.2104C102.222 59.0115 101.934 58.9121 101.598 58.9121C101.184 58.9121 100.861 59.04 100.631 59.2956C100.401 59.5485 100.286 59.8738 100.286 60.2715V64.4434H99.0159V60.0925C99.0159 59.7374 98.9051 59.4519 98.6835 59.236C98.4619 59.0201 98.1736 58.9121 97.8185 58.9121C97.577 58.9121 97.354 58.976 97.1494 59.1039C96.9477 59.2289 96.7844 59.4036 96.6594 59.628C96.5372 59.8525 96.4761 60.1124 96.4761 60.4078V64.4434H95.202ZM107.712 64.5882C107.298 64.5882 106.923 64.5115 106.587 64.3581C106.252 64.2019 105.986 63.976 105.79 63.6806C105.597 63.3851 105.501 63.0229 105.501 62.5939C105.501 62.2246 105.572 61.9206 105.714 61.682C105.856 61.4434 106.048 61.2544 106.289 61.1152C106.53 60.976 106.8 60.8709 107.099 60.7999C107.397 60.7289 107.701 60.6749 108.011 60.638C108.403 60.5925 108.721 60.5556 108.965 60.5272C109.209 60.4959 109.387 60.4462 109.498 60.378C109.609 60.3098 109.664 60.199 109.664 60.0456V60.0158C109.664 59.6436 109.559 59.3553 109.349 59.1507C109.141 58.9462 108.832 58.8439 108.42 58.8439C107.991 58.8439 107.653 58.9391 107.405 59.1294C107.161 59.3169 106.992 59.5257 106.898 59.7559L105.701 59.4831C105.843 59.0854 106.05 58.7644 106.323 58.5201C106.599 58.2729 106.915 58.0939 107.273 57.9831C107.631 57.8695 108.008 57.8127 108.403 57.8127C108.664 57.8127 108.941 57.8439 109.234 57.9064C109.529 57.9661 109.805 58.0769 110.06 58.2388C110.319 58.4007 110.53 58.6323 110.695 58.9334C110.86 59.2317 110.942 59.6195 110.942 60.0968V64.4434H109.698V63.5485H109.647C109.565 63.7132 109.441 63.8752 109.276 64.0343C109.111 64.1934 108.9 64.3255 108.641 64.4306C108.383 64.5357 108.073 64.5882 107.712 64.5882ZM107.989 63.5655C108.342 63.5655 108.643 63.4959 108.893 63.3567C109.146 63.2175 109.337 63.0357 109.468 62.8113C109.601 62.584 109.668 62.3411 109.668 62.0826V61.2388C109.623 61.2843 109.535 61.3269 109.404 61.3667C109.276 61.4036 109.13 61.4363 108.965 61.4647C108.8 61.4902 108.64 61.5144 108.484 61.5371C108.327 61.557 108.197 61.574 108.092 61.5882C107.844 61.6195 107.619 61.6721 107.414 61.7459C107.212 61.8198 107.05 61.9263 106.928 62.0655C106.809 62.2019 106.749 62.3837 106.749 62.611C106.749 62.9263 106.866 63.165 107.099 63.3269C107.332 63.486 107.628 63.5655 107.989 63.5655ZM112.639 64.4434V57.8979H113.871V58.9377H113.939C114.059 58.5854 114.269 58.3084 114.57 58.1067C114.874 57.9022 115.218 57.7999 115.601 57.7999C115.681 57.7999 115.774 57.8027 115.882 57.8084C115.993 57.8141 116.08 57.8212 116.142 57.8297V59.0485C116.091 59.0343 116 59.0186 115.87 59.0016C115.739 58.9817 115.608 58.9718 115.478 58.9718C115.176 58.9718 114.908 59.0357 114.672 59.1635C114.439 59.2885 114.255 59.4632 114.118 59.6877C113.982 59.9093 113.914 60.1621 113.914 60.4462V64.4434H112.639ZM118.25 66.8979C118.059 66.8979 117.886 66.8823 117.73 66.851C117.573 66.8226 117.457 66.7914 117.38 66.7573L117.687 65.7132C117.92 65.7757 118.127 65.8027 118.309 65.7942C118.491 65.7857 118.652 65.7175 118.791 65.5897C118.933 65.4618 119.058 65.253 119.166 64.9632L119.323 64.5286L116.929 57.8979H118.292L119.95 62.9775H120.018L121.676 57.8979H123.044L120.346 65.3169C120.221 65.6578 120.062 65.9462 119.869 66.182C119.676 66.4206 119.446 66.5996 119.179 66.7189C118.912 66.8382 118.602 66.8979 118.25 66.8979ZM72.4815 82.0343C71.9616 82.0343 71.5141 81.9661 71.1391 81.8297C70.767 81.6934 70.463 81.513 70.2272 81.2885C69.9914 81.0641 69.8153 80.8184 69.6988 80.5513L70.794 80.0996C70.8707 80.2246 70.9729 80.3567 71.1008 80.4959C71.2315 80.638 71.4076 80.7587 71.6292 80.8581C71.8536 80.9576 72.142 81.0073 72.4943 81.0073C72.9772 81.0073 73.3764 80.8894 73.6917 80.6536C74.007 80.4206 74.1647 80.0485 74.1647 79.5371V78.2502H74.0837C74.007 78.3894 73.8962 78.5442 73.7514 78.7147C73.6093 78.8851 73.4133 79.0328 73.1633 79.1578C72.9133 79.2828 72.588 79.3453 72.1874 79.3453C71.6704 79.3453 71.2045 79.2246 70.7897 78.9831C70.3778 78.7388 70.0511 78.3794 69.8096 77.905C69.571 77.4277 69.4516 76.8411 69.4516 76.1451C69.4516 75.449 69.5695 74.8525 69.8053 74.3553C70.044 73.8581 70.3707 73.4775 70.7854 73.2132C71.2002 72.9462 71.6704 72.8127 72.196 72.8127C72.6022 72.8127 72.9303 72.8809 73.1803 73.0172C73.4303 73.1507 73.6249 73.307 73.7641 73.486C73.9062 73.665 74.0156 73.8226 74.0923 73.959H74.186V72.8979H75.4346V79.5882C75.4346 80.1507 75.3039 80.6124 75.0425 80.9732C74.7812 81.334 74.4275 81.601 73.9815 81.7743C73.5383 81.9476 73.0383 82.0343 72.4815 82.0343ZM72.4687 78.2885C72.8352 78.2885 73.1448 78.2033 73.3977 78.0328C73.6533 77.8596 73.8465 77.6124 73.9772 77.2914C74.1107 76.9675 74.1775 76.5797 74.1775 76.128C74.1775 75.6877 74.1121 75.2999 73.9815 74.9647C73.8508 74.6294 73.659 74.3681 73.4062 74.1806C73.1533 73.9902 72.8408 73.8951 72.4687 73.8951C72.0852 73.8951 71.7656 73.9945 71.5099 74.1934C71.2542 74.3894 71.061 74.6564 70.9303 74.9945C70.8025 75.3326 70.7386 75.7104 70.7386 76.128C70.7386 76.557 70.8039 76.9334 70.9346 77.2573C71.0653 77.5811 71.2585 77.834 71.5141 78.0158C71.7727 78.1976 72.0908 78.2885 72.4687 78.2885ZM79.9644 79.5755C79.3195 79.5755 78.7641 79.4377 78.2982 79.1621C77.8352 78.8837 77.4772 78.4931 77.2244 77.9902C76.9744 77.4846 76.8494 76.8922 76.8494 76.2132C76.8494 75.5428 76.9744 74.9519 77.2244 74.4405C77.4772 73.9292 77.8295 73.53 78.2812 73.2431C78.7357 72.9561 79.267 72.8127 79.8749 72.8127C80.2443 72.8127 80.6022 72.8738 80.9488 72.9959C81.2954 73.1181 81.6065 73.3098 81.882 73.5712C82.1576 73.8326 82.3749 74.1721 82.534 74.5897C82.6931 75.0044 82.7727 75.5087 82.7727 76.1025V76.5542H77.5695V75.5996H81.5241C81.5241 75.2644 81.4559 74.9675 81.3195 74.709C81.1832 74.4476 80.9914 74.2417 80.7443 74.0911C80.4999 73.9405 80.213 73.8652 79.8835 73.8652C79.5255 73.8652 79.213 73.9533 78.946 74.1294C78.6818 74.3027 78.4772 74.53 78.3323 74.8113C78.1903 75.0897 78.1193 75.3922 78.1193 75.7189V76.4647C78.1193 76.9022 78.196 77.2743 78.3494 77.5811C78.5056 77.888 78.7229 78.1223 79.0014 78.2843C79.2798 78.4434 79.605 78.5229 79.9772 78.5229C80.2187 78.5229 80.4389 78.4888 80.6377 78.4206C80.8366 78.3496 81.0085 78.2445 81.1533 78.1053C81.2982 77.9661 81.409 77.7942 81.4857 77.5897L82.6917 77.807C82.5951 78.1621 82.4218 78.4732 82.1718 78.7402C81.9246 79.0044 81.6136 79.2104 81.2386 79.3581C80.8664 79.503 80.4417 79.5755 79.9644 79.5755ZM85.4605 75.557V79.4434H84.1864V72.8979H85.4094V73.9632H85.4903C85.6409 73.6167 85.8767 73.3382 86.1977 73.128C86.5216 72.9178 86.9293 72.8127 87.4207 72.8127C87.8668 72.8127 88.2574 72.9064 88.5926 73.0939C88.9278 73.2786 89.1878 73.5542 89.3724 73.9206C89.5571 74.2871 89.6494 74.7402 89.6494 75.28V79.4434H88.3753V75.4334C88.3753 74.959 88.2517 74.5882 88.0045 74.3212C87.7574 74.0513 87.4179 73.9164 86.9861 73.9164C86.6906 73.9164 86.4278 73.9803 86.1977 74.1081C85.9705 74.236 85.7901 74.4235 85.6565 74.6706C85.5259 74.915 85.4605 75.2104 85.4605 75.557ZM94.1793 79.5755C93.5344 79.5755 92.979 79.4377 92.5131 79.1621C92.05 78.8837 91.692 78.4931 91.4392 77.9902C91.1892 77.4846 91.0642 76.8922 91.0642 76.2132C91.0642 75.5428 91.1892 74.9519 91.4392 74.4405C91.692 73.9292 92.0443 73.53 92.496 73.2431C92.9506 72.9561 93.4818 72.8127 94.0898 72.8127C94.4591 72.8127 94.8171 72.8738 95.1636 72.9959C95.5102 73.1181 95.8213 73.3098 96.0969 73.5712C96.3724 73.8326 96.5898 74.1721 96.7489 74.5897C96.908 75.0044 96.9875 75.5087 96.9875 76.1025V76.5542H91.7844V75.5996H95.7389C95.7389 75.2644 95.6707 74.9675 95.5344 74.709C95.398 74.4476 95.2063 74.2417 94.9591 74.0911C94.7148 73.9405 94.4278 73.8652 94.0983 73.8652C93.7403 73.8652 93.4278 73.9533 93.1608 74.1294C92.8966 74.3027 92.692 74.53 92.5472 74.8113C92.4051 75.0897 92.3341 75.3922 92.3341 75.7189V76.4647C92.3341 76.9022 92.4108 77.2743 92.5642 77.5811C92.7205 77.888 92.9378 78.1223 93.2162 78.2843C93.4946 78.4434 93.8199 78.5229 94.192 78.5229C94.4335 78.5229 94.6537 78.4888 94.8526 78.4206C95.0514 78.3496 95.2233 78.2445 95.3682 78.1053C95.5131 77.9661 95.6239 77.7942 95.7006 77.5897L96.9065 77.807C96.8099 78.1621 96.6367 78.4732 96.3867 78.7402C96.1395 79.0044 95.8284 79.2104 95.4534 79.3581C95.0813 79.503 94.6565 79.5755 94.1793 79.5755ZM98.4012 79.4434V72.8979H99.6327V73.9377H99.7009C99.8202 73.5854 100.03 73.3084 100.332 73.1067C100.636 72.9022 100.979 72.7999 101.363 72.7999C101.442 72.7999 101.536 72.8027 101.644 72.8084C101.755 72.8141 101.842 72.8212 101.904 72.8297V74.0485C101.853 74.0343 101.762 74.0186 101.631 74.0016C101.501 73.9817 101.37 73.9718 101.239 73.9718C100.938 73.9718 100.67 74.0357 100.434 74.1635C100.201 74.2885 100.016 74.4632 99.8799 74.6877C99.7435 74.9093 99.6754 75.1621 99.6754 75.4462V79.4434H98.4012ZM104.853 79.5882C104.438 79.5882 104.063 79.5115 103.728 79.3581C103.393 79.2019 103.127 78.976 102.931 78.6806C102.738 78.3851 102.641 78.0229 102.641 77.5939C102.641 77.2246 102.712 76.9206 102.854 76.682C102.996 76.4434 103.188 76.2544 103.43 76.1152C103.671 75.976 103.941 75.8709 104.239 75.7999C104.538 75.7289 104.842 75.6749 105.151 75.638C105.543 75.5925 105.861 75.5556 106.106 75.5272C106.35 75.4959 106.528 75.4462 106.638 75.378C106.749 75.3098 106.805 75.199 106.805 75.0456V75.0158C106.805 74.6436 106.7 74.3553 106.489 74.1507C106.282 73.9462 105.972 73.8439 105.56 73.8439C105.131 73.8439 104.793 73.9391 104.546 74.1294C104.302 74.3169 104.133 74.5257 104.039 74.7559L102.842 74.4831C102.984 74.0854 103.191 73.7644 103.464 73.5201C103.739 73.2729 104.056 73.0939 104.414 72.9831C104.772 72.8695 105.148 72.8127 105.543 72.8127C105.805 72.8127 106.082 72.8439 106.374 72.9064C106.67 72.9661 106.945 73.0769 107.201 73.2388C107.459 73.4007 107.671 73.6323 107.836 73.9334C108.001 74.2317 108.083 74.6195 108.083 75.0968V79.4434H106.839V78.5485H106.788C106.705 78.7132 106.582 78.8752 106.417 79.0343C106.252 79.1934 106.04 79.3255 105.782 79.4306C105.523 79.5357 105.214 79.5882 104.853 79.5882ZM105.13 78.5655C105.482 78.5655 105.783 78.4959 106.033 78.3567C106.286 78.2175 106.478 78.0357 106.609 77.8113C106.742 77.584 106.809 77.3411 106.809 77.0826V76.2388C106.763 76.2843 106.675 76.3269 106.545 76.3667C106.417 76.4036 106.271 76.4363 106.106 76.4647C105.941 76.4902 105.78 76.5144 105.624 76.5371C105.468 76.557 105.337 76.574 105.232 76.5882C104.985 76.6195 104.759 76.6721 104.555 76.7459C104.353 76.8198 104.191 76.9263 104.069 77.0655C103.95 77.2019 103.89 77.3837 103.89 77.611C103.89 77.9263 104.006 78.165 104.239 78.3269C104.472 78.486 104.769 78.5655 105.13 78.5655ZM112.836 72.8979V73.9206H109.26V72.8979H112.836ZM110.219 71.3297H111.493V77.5215C111.493 77.7686 111.53 77.9547 111.604 78.0797C111.678 78.2019 111.773 78.2857 111.889 78.3311C112.009 78.3738 112.138 78.3951 112.277 78.3951C112.38 78.3951 112.469 78.388 112.546 78.3738C112.622 78.3596 112.682 78.3482 112.725 78.3397L112.955 79.3922C112.881 79.4206 112.776 79.449 112.639 79.4775C112.503 79.5087 112.333 79.5257 112.128 79.5286C111.793 79.5343 111.48 79.4746 111.191 79.3496C110.901 79.2246 110.666 79.0314 110.488 78.7701C110.309 78.5087 110.219 78.1806 110.219 77.7857V71.3297ZM116.996 79.5755C116.351 79.5755 115.795 79.4377 115.329 79.1621C114.866 78.8837 114.508 78.4931 114.256 77.9902C114.006 77.4846 113.881 76.8922 113.881 76.2132C113.881 75.5428 114.006 74.9519 114.256 74.4405C114.508 73.9292 114.861 73.53 115.312 73.2431C115.767 72.9561 116.298 72.8127 116.906 72.8127C117.276 72.8127 117.633 72.8738 117.98 72.9959C118.327 73.1181 118.638 73.3098 118.913 73.5712C119.189 73.8326 119.406 74.1721 119.565 74.5897C119.724 75.0044 119.804 75.5087 119.804 76.1025V76.5542H114.601V75.5996H118.555C118.555 75.2644 118.487 74.9675 118.351 74.709C118.214 74.4476 118.023 74.2417 117.776 74.0911C117.531 73.9405 117.244 73.8652 116.915 73.8652C116.557 73.8652 116.244 73.9533 115.977 74.1294C115.713 74.3027 115.508 74.53 115.364 74.8113C115.222 75.0897 115.151 75.3922 115.151 75.7189V76.4647C115.151 76.9022 115.227 77.2743 115.381 77.5811C115.537 77.888 115.754 78.1223 116.033 78.2843C116.311 78.4434 116.636 78.5229 117.008 78.5229C117.25 78.5229 117.47 78.4888 117.669 78.4206C117.868 78.3496 118.04 78.2445 118.185 78.1053C118.329 77.9661 118.44 77.7942 118.517 77.5897L119.723 77.807C119.626 78.1621 119.453 78.4732 119.203 78.7402C118.956 79.0044 118.645 79.2104 118.27 79.3581C117.898 79.503 117.473 79.5755 116.996 79.5755ZM123.668 79.5712C123.139 79.5712 122.668 79.4363 122.253 79.1664C121.841 78.8936 121.517 78.5059 121.282 78.003C121.049 77.4973 120.932 76.8908 120.932 76.1834C120.932 75.476 121.05 74.8709 121.286 74.3681C121.524 73.8652 121.851 73.4803 122.266 73.2132C122.681 72.9462 123.151 72.8127 123.676 72.8127C124.083 72.8127 124.409 72.8809 124.657 73.0172C124.907 73.1507 125.1 73.307 125.236 73.486C125.375 73.665 125.483 73.8226 125.56 73.959H125.637V70.7161H126.911V79.4434H125.666V78.4249H125.56C125.483 78.5641 125.372 78.7232 125.228 78.9022C125.086 79.0811 124.889 79.2374 124.639 79.3709C124.389 79.5044 124.066 79.5712 123.668 79.5712ZM123.949 78.4846C124.316 78.4846 124.625 78.388 124.878 78.1948C125.134 77.9988 125.327 77.7275 125.458 77.3809C125.591 77.0343 125.658 76.6309 125.658 76.1706C125.658 75.7161 125.593 75.3184 125.462 74.9775C125.331 74.6365 125.139 74.3709 124.887 74.1806C124.634 73.9902 124.321 73.8951 123.949 73.8951C123.566 73.8951 123.246 73.9945 122.99 74.1934C122.735 74.3922 122.541 74.6635 122.411 75.0073C122.283 75.351 122.219 75.7388 122.219 76.1706C122.219 76.6081 122.284 77.0016 122.415 77.351C122.546 77.7005 122.739 77.9775 122.995 78.182C123.253 78.3837 123.571 78.4846 123.949 78.4846Z" fill="#6F7373"/>
<path d="M19.2303 64.0641C18.6692 64.0617 18.1898 63.9138 17.7921 63.6202C17.3944 63.3266 17.0902 62.8993 16.8795 62.3382C16.6688 61.7772 16.5634 61.1013 16.5634 60.3105C16.5634 59.5222 16.6688 58.8487 16.8795 58.29C17.0925 57.7312 17.3979 57.3051 17.7957 57.0115C18.1957 56.718 18.674 56.5712 19.2303 56.5712C19.7867 56.5712 20.2637 56.7192 20.6614 57.0151C21.0591 57.3087 21.3634 57.7348 21.5741 58.2935C21.7871 58.8498 21.8937 59.5222 21.8937 60.3105C21.8937 61.1036 21.7883 61.7807 21.5776 62.3418C21.3669 62.9005 21.0627 63.3278 20.665 63.6238C20.2672 63.9173 19.789 64.0641 19.2303 64.0641ZM19.2303 63.1159C19.7227 63.1159 20.1074 62.8757 20.3844 62.3951C20.6638 61.9145 20.8035 61.2196 20.8035 60.3105C20.8035 59.7069 20.7395 59.1967 20.6117 58.78C20.4862 58.361 20.3051 58.0437 20.0684 57.8283C19.834 57.6105 19.5547 57.5016 19.2303 57.5016C18.7403 57.5016 18.3556 57.7431 18.0762 58.226C17.7968 58.709 17.656 59.4038 17.6536 60.3105C17.6536 60.9166 17.7163 61.4292 17.8418 61.8482C17.9697 62.2649 18.1508 62.5809 18.3851 62.7963C18.6195 63.0094 18.9012 63.1159 19.2303 63.1159ZM25.5718 56.5712C25.8961 56.5736 26.2157 56.6328 26.5306 56.7488C26.8454 56.8648 27.1295 57.0542 27.3828 57.3169C27.6385 57.5797 27.8421 57.9348 27.9936 58.3823C28.1475 58.8274 28.2256 59.3813 28.228 60.0442C28.228 60.681 28.1641 61.248 28.0362 61.7452C27.9084 62.24 27.7249 62.6578 27.4858 62.9988C27.2491 63.3397 26.9614 63.5989 26.6229 63.7765C26.2843 63.954 25.9032 64.0428 25.4794 64.0428C25.0462 64.0428 24.6615 63.9576 24.3253 63.7871C23.9891 63.6167 23.7157 63.3811 23.505 63.0804C23.2943 62.7774 23.1629 62.4294 23.1108 62.0364H24.1939C24.2649 62.3489 24.4093 62.6022 24.6272 62.7963C24.8473 62.9881 25.1314 63.084 25.4794 63.084C26.0121 63.084 26.4276 62.852 26.7259 62.388C27.0242 61.9216 27.1745 61.2705 27.1769 60.4348H27.1201C26.9969 60.6384 26.8431 60.8136 26.6584 60.9604C26.4761 61.1072 26.2713 61.2208 26.0441 61.3013C25.8168 61.3818 25.5741 61.4221 25.3161 61.4221C24.897 61.4221 24.5159 61.3191 24.1726 61.1131C23.8293 60.9071 23.5559 60.6242 23.3523 60.2644C23.1487 59.9045 23.0469 59.4938 23.0469 59.0321C23.0469 58.5729 23.1511 58.1562 23.3594 57.7821C23.5701 57.4081 23.8637 57.1122 24.2401 56.8944C24.6189 56.6742 25.0628 56.5665 25.5718 56.5712ZM25.5753 57.4945C25.2983 57.4945 25.0486 57.5632 24.826 57.7005C24.6058 57.8354 24.4318 58.0189 24.304 58.2509C24.1762 58.4805 24.1122 58.7362 24.1122 59.0179C24.1122 59.2997 24.1738 59.5553 24.2969 59.785C24.4224 60.0123 24.5928 60.1934 24.8083 60.3283C25.0261 60.4609 25.2746 60.5272 25.554 60.5272C25.7623 60.5272 25.9565 60.4869 26.1364 60.4064C26.3163 60.3259 26.4737 60.2147 26.6087 60.0726C26.7436 59.9282 26.849 59.7649 26.9247 59.5826C27.0005 59.4003 27.0384 59.2085 27.0384 59.0073C27.0384 58.7398 26.9745 58.4912 26.8466 58.2615C26.7211 58.0319 26.5483 57.8472 26.3281 57.7076C26.108 57.5655 25.857 57.4945 25.5753 57.4945ZM30.2246 63.0414C30.0305 63.0414 29.8636 62.9727 29.7239 62.8354C29.5842 62.6957 29.5144 62.5276 29.5144 62.3311C29.5144 62.137 29.5842 61.9713 29.7239 61.834C29.8636 61.6943 30.0305 61.6245 30.2246 61.6245C30.4188 61.6245 30.5857 61.6943 30.7253 61.834C30.865 61.9713 30.9349 62.137 30.9349 62.3311C30.9349 62.4614 30.9017 62.5809 30.8354 62.6898C30.7715 62.7963 30.6863 62.8816 30.5797 62.9455C30.4732 63.0094 30.3548 63.0414 30.2246 63.0414ZM30.2246 59.3979C30.0305 59.3979 29.8636 59.3292 29.7239 59.1919C29.5842 59.0523 29.5144 58.8842 29.5144 58.6877C29.5144 58.4935 29.5842 58.3278 29.7239 58.1905C29.8636 58.0508 30.0305 57.981 30.2246 57.981C30.4188 57.981 30.5857 58.0508 30.7253 58.1905C30.865 58.3278 30.9349 58.4935 30.9349 58.6877C30.9349 58.8179 30.9017 58.9374 30.8354 59.0463C30.7715 59.1529 30.6863 59.2381 30.5797 59.302C30.4732 59.3659 30.3548 59.3979 30.2246 59.3979ZM35.1021 56.6706V63.9434H34.0013V57.7715H33.9587L32.2186 58.9078V57.8567L34.0332 56.6706H35.1021ZM37.0694 63.9434V63.1479L39.5304 60.5982C39.7932 60.3212 40.0098 60.0785 40.1802 59.8702C40.3531 59.6595 40.4821 59.4595 40.5673 59.2701C40.6525 59.0807 40.6952 58.8794 40.6952 58.6664C40.6952 58.4249 40.6383 58.2166 40.5247 58.0414C40.4111 57.8638 40.256 57.7277 40.0595 57.633C39.863 57.5359 39.6417 57.4874 39.3954 57.4874C39.135 57.4874 38.9078 57.5407 38.7136 57.6472C38.5195 57.7537 38.3703 57.9041 38.2662 58.0982C38.162 58.2923 38.1099 58.5196 38.1099 58.78H37.0623C37.0623 58.3373 37.1641 57.9502 37.3677 57.6188C37.5713 57.2873 37.8507 57.0305 38.2058 56.8482C38.5609 56.6635 38.9646 56.5712 39.4167 56.5712C39.8737 56.5712 40.2761 56.6623 40.6241 56.8446C40.9745 57.0246 41.248 57.2708 41.4444 57.5833C41.6409 57.8934 41.7392 58.2438 41.7392 58.6344C41.7392 58.9043 41.6883 59.1683 41.5865 59.4263C41.4871 59.6844 41.3131 59.972 41.0645 60.2892C40.8159 60.6041 40.4703 60.9864 40.0275 61.4363L38.5822 62.949V63.0023H41.8564V63.9434H37.0694Z" fill="#494D4D"/>
<circle cx="56.7046" cy="59.9434" r="4.5" fill="url(#paint0_linear_768_2)"/>
<path d="M69.4098 110.012V108.878H76.164V110.012H73.441V117.605H72.1285V110.012H69.4098ZM78.5685 117.75C78.1537 117.75 77.7787 117.674 77.4435 117.52C77.1083 117.364 76.8426 117.138 76.6466 116.843C76.4534 116.547 76.3568 116.185 76.3568 115.756C76.3568 115.387 76.4279 115.083 76.5699 114.844C76.712 114.605 76.9037 114.417 77.1452 114.277C77.3867 114.138 77.6566 114.033 77.9549 113.962C78.2532 113.891 78.5571 113.837 78.8668 113.8C79.2588 113.755 79.577 113.718 79.8213 113.689C80.0657 113.658 80.2432 113.608 80.354 113.54C80.4648 113.472 80.5202 113.361 80.5202 113.208V113.178C80.5202 112.806 80.4151 112.517 80.2049 112.313C79.9975 112.108 79.6878 112.006 79.2759 112.006C78.8469 112.006 78.5088 112.101 78.2617 112.292C78.0174 112.479 77.8483 112.688 77.7546 112.918L76.5571 112.645C76.6992 112.248 76.9066 111.926 77.1793 111.682C77.4549 111.435 77.7716 111.256 78.1296 111.145C78.4875 111.032 78.8639 110.975 79.2588 110.975C79.5202 110.975 79.7972 111.006 80.0898 111.069C80.3853 111.128 80.6608 111.239 80.9165 111.401C81.175 111.563 81.3867 111.794 81.5514 112.096C81.7162 112.394 81.7986 112.782 81.7986 113.259V117.605H80.5543V116.711H80.5032C80.4208 116.875 80.2972 117.037 80.1324 117.196C79.9676 117.355 79.756 117.488 79.4975 117.593C79.2389 117.698 78.9293 117.75 78.5685 117.75ZM78.8455 116.728C79.1978 116.728 79.4989 116.658 79.7489 116.519C80.0017 116.38 80.1935 116.198 80.3242 115.973C80.4577 115.746 80.5245 115.503 80.5245 115.245V114.401C80.479 114.446 80.3909 114.489 80.2603 114.529C80.1324 114.566 79.9861 114.598 79.8213 114.627C79.6566 114.652 79.496 114.676 79.3398 114.699C79.1835 114.719 79.0529 114.736 78.9478 114.75C78.7006 114.782 78.4747 114.834 78.2702 114.908C78.0685 114.982 77.9066 115.088 77.7844 115.228C77.6651 115.364 77.6054 115.546 77.6054 115.773C77.6054 116.088 77.7219 116.327 77.9549 116.489C78.1878 116.648 78.4847 116.728 78.8455 116.728ZM88.4005 112.658L87.2457 112.863C87.1974 112.715 87.1207 112.574 87.0156 112.441C86.9133 112.307 86.7741 112.198 86.598 112.113C86.4218 112.027 86.2017 111.985 85.9375 111.985C85.5767 111.985 85.2755 112.066 85.034 112.228C84.7926 112.387 84.6718 112.593 84.6718 112.846C84.6718 113.064 84.7528 113.24 84.9147 113.374C85.0767 113.507 85.338 113.617 85.6988 113.702L86.7386 113.941C87.3409 114.08 87.7897 114.294 88.0852 114.584C88.3806 114.874 88.5284 115.25 88.5284 115.713C88.5284 116.105 88.4147 116.455 88.1875 116.762C87.963 117.066 87.6491 117.304 87.2457 117.478C86.8451 117.651 86.3806 117.738 85.8522 117.738C85.1193 117.738 84.5213 117.581 84.0582 117.269C83.5951 116.953 83.311 116.506 83.2059 115.926L84.4375 115.739C84.5142 116.06 84.6718 116.303 84.9105 116.468C85.1491 116.63 85.4602 116.711 85.8437 116.711C86.2613 116.711 86.5951 116.624 86.8451 116.451C87.0951 116.275 87.2201 116.06 87.2201 115.807C87.2201 115.603 87.1434 115.431 86.99 115.292C86.8394 115.152 86.6079 115.047 86.2954 114.976L85.1875 114.733C84.5767 114.594 84.125 114.373 83.8323 114.069C83.5426 113.765 83.3977 113.38 83.3977 112.914C83.3977 112.527 83.5056 112.189 83.7215 111.9C83.9375 111.61 84.2358 111.384 84.6164 111.222C84.9971 111.057 85.4332 110.975 85.9247 110.975C86.6321 110.975 87.1889 111.128 87.5951 111.435C88.0014 111.739 88.2698 112.147 88.4005 112.658ZM91.1012 115.385L91.0926 113.83H91.3142L93.9222 111.06H95.4478L92.4733 114.213H92.273L91.1012 115.385ZM89.9293 117.605V108.878H91.2034V117.605H89.9293ZM94.0628 117.605L91.7191 114.495L92.5969 113.604L95.6267 117.605H94.0628ZM102.542 117.738C101.908 117.738 101.363 117.594 100.905 117.307C100.451 117.017 100.102 116.618 99.8572 116.11C99.6129 115.601 99.4907 115.019 99.4907 114.363C99.4907 113.698 99.6157 113.111 99.8657 112.603C100.116 112.091 100.468 111.692 100.923 111.405C101.377 111.118 101.913 110.975 102.529 110.975C103.026 110.975 103.469 111.067 103.859 111.252C104.248 111.434 104.562 111.689 104.8 112.019C105.042 112.348 105.185 112.733 105.231 113.174H103.991C103.923 112.867 103.766 112.603 103.522 112.381C103.28 112.159 102.957 112.049 102.55 112.049C102.195 112.049 101.884 112.142 101.617 112.33C101.353 112.515 101.147 112.779 100.999 113.123C100.852 113.463 100.778 113.867 100.778 114.333C100.778 114.81 100.85 115.222 100.995 115.569C101.14 115.915 101.344 116.184 101.609 116.374C101.876 116.564 102.19 116.659 102.55 116.659C102.792 116.659 103.011 116.615 103.207 116.527C103.405 116.436 103.572 116.307 103.705 116.14C103.842 115.972 103.937 115.77 103.991 115.534H105.231C105.185 115.958 105.048 116.336 104.817 116.668C104.587 117 104.279 117.262 103.893 117.452C103.509 117.642 103.059 117.738 102.542 117.738ZM106.593 117.605V111.06H107.825V112.1H107.893C108.012 111.748 108.223 111.471 108.524 111.269C108.828 111.064 109.171 110.962 109.555 110.962C109.635 110.962 109.728 110.965 109.836 110.971C109.947 110.976 110.034 110.983 110.096 110.992V112.211C110.045 112.196 109.954 112.181 109.823 112.164C109.693 112.144 109.562 112.134 109.431 112.134C109.13 112.134 108.862 112.198 108.626 112.326C108.393 112.451 108.208 112.625 108.072 112.85C107.936 113.071 107.867 113.324 107.867 113.608V117.605H106.593ZM113.785 117.738C113.141 117.738 112.585 117.6 112.119 117.324C111.656 117.046 111.298 116.655 111.045 116.152C110.795 115.647 110.67 115.054 110.67 114.375C110.67 113.705 110.795 113.114 111.045 112.603C111.298 112.091 111.651 111.692 112.102 111.405C112.557 111.118 113.088 110.975 113.696 110.975C114.065 110.975 114.423 111.036 114.77 111.158C115.116 111.28 115.428 111.472 115.703 111.733C115.979 111.995 116.196 112.334 116.355 112.752C116.514 113.167 116.594 113.671 116.594 114.265V114.716H111.391V113.762H115.345C115.345 113.426 115.277 113.13 115.141 112.871C115.004 112.61 114.812 112.404 114.565 112.253C114.321 112.103 114.034 112.027 113.705 112.027C113.347 112.027 113.034 112.115 112.767 112.292C112.503 112.465 112.298 112.692 112.153 112.973C112.011 113.252 111.94 113.554 111.94 113.881V114.627C111.94 115.064 112.017 115.436 112.17 115.743C112.327 116.05 112.544 116.284 112.822 116.446C113.101 116.605 113.426 116.685 113.798 116.685C114.04 116.685 114.26 116.651 114.459 116.583C114.658 116.512 114.83 116.407 114.974 116.267C115.119 116.128 115.23 115.956 115.307 115.752L116.513 115.969C116.416 116.324 116.243 116.635 115.993 116.902C115.746 117.167 115.435 117.373 115.06 117.52C114.687 117.665 114.263 117.738 113.785 117.738ZM119.912 117.75C119.497 117.75 119.122 117.674 118.787 117.52C118.452 117.364 118.186 117.138 117.99 116.843C117.797 116.547 117.701 116.185 117.701 115.756C117.701 115.387 117.772 115.083 117.914 114.844C118.056 114.605 118.247 114.417 118.489 114.277C118.73 114.138 119 114.033 119.299 113.962C119.597 113.891 119.901 113.837 120.211 113.8C120.603 113.755 120.921 113.718 121.165 113.689C121.409 113.658 121.587 113.608 121.698 113.54C121.809 113.472 121.864 113.361 121.864 113.208V113.178C121.864 112.806 121.759 112.517 121.549 112.313C121.341 112.108 121.032 112.006 120.62 112.006C120.191 112.006 119.853 112.101 119.605 112.292C119.361 112.479 119.192 112.688 119.098 112.918L117.901 112.645C118.043 112.248 118.25 111.926 118.523 111.682C118.799 111.435 119.115 111.256 119.473 111.145C119.831 111.032 120.208 110.975 120.603 110.975C120.864 110.975 121.141 111.006 121.434 111.069C121.729 111.128 122.005 111.239 122.26 111.401C122.519 111.563 122.73 111.794 122.895 112.096C123.06 112.394 123.142 112.782 123.142 113.259V117.605H121.898V116.711H121.847C121.765 116.875 121.641 117.037 121.476 117.196C121.311 117.355 121.1 117.488 120.841 117.593C120.583 117.698 120.273 117.75 119.912 117.75ZM120.189 116.728C120.542 116.728 120.843 116.658 121.093 116.519C121.345 116.38 121.537 116.198 121.668 115.973C121.801 115.746 121.868 115.503 121.868 115.245V114.401C121.823 114.446 121.735 114.489 121.604 114.529C121.476 114.566 121.33 114.598 121.165 114.627C121 114.652 120.84 114.676 120.684 114.699C120.527 114.719 120.397 114.736 120.292 114.75C120.044 114.782 119.818 114.834 119.614 114.908C119.412 114.982 119.25 115.088 119.128 115.228C119.009 115.364 118.949 115.546 118.949 115.773C118.949 116.088 119.066 116.327 119.299 116.489C119.532 116.648 119.828 116.728 120.189 116.728ZM127.895 111.06V112.083H124.32V111.06H127.895ZM125.278 109.492H126.553V115.684C126.553 115.931 126.589 116.117 126.663 116.242C126.737 116.364 126.832 116.448 126.949 116.493C127.068 116.536 127.197 116.557 127.337 116.557C127.439 116.557 127.528 116.55 127.605 116.536C127.682 116.522 127.741 116.51 127.784 116.502L128.014 117.554C127.94 117.583 127.835 117.611 127.699 117.64C127.562 117.671 127.392 117.688 127.187 117.691C126.852 117.696 126.54 117.637 126.25 117.512C125.96 117.387 125.726 117.194 125.547 116.932C125.368 116.671 125.278 116.343 125.278 115.948V109.492ZM132.055 117.738C131.41 117.738 130.855 117.6 130.389 117.324C129.926 117.046 129.568 116.655 129.315 116.152C129.065 115.647 128.94 115.054 128.94 114.375C128.94 113.705 129.065 113.114 129.315 112.603C129.568 112.091 129.92 111.692 130.372 111.405C130.826 111.118 131.358 110.975 131.966 110.975C132.335 110.975 132.693 111.036 133.039 111.158C133.386 111.28 133.697 111.472 133.973 111.733C134.248 111.995 134.466 112.334 134.625 112.752C134.784 113.167 134.863 113.671 134.863 114.265V114.716H129.66V113.762H133.615C133.615 113.426 133.546 113.13 133.41 112.871C133.274 112.61 133.082 112.404 132.835 112.253C132.591 112.103 132.304 112.027 131.974 112.027C131.616 112.027 131.304 112.115 131.037 112.292C130.772 112.465 130.568 112.692 130.423 112.973C130.281 113.252 130.21 113.554 130.21 113.881V114.627C130.21 115.064 130.287 115.436 130.44 115.743C130.596 116.05 130.814 116.284 131.092 116.446C131.37 116.605 131.696 116.685 132.068 116.685C132.309 116.685 132.529 116.651 132.728 116.583C132.927 116.512 133.099 116.407 133.244 116.267C133.389 116.128 133.5 115.956 133.576 115.752L134.782 115.969C134.686 116.324 134.512 116.635 134.262 116.902C134.015 117.167 133.704 117.373 133.329 117.52C132.957 117.665 132.532 117.738 132.055 117.738ZM138.727 117.733C138.199 117.733 137.727 117.598 137.312 117.328C136.901 117.056 136.577 116.668 136.341 116.165C136.108 115.659 135.991 115.053 135.991 114.346C135.991 113.638 136.109 113.033 136.345 112.53C136.584 112.027 136.91 111.642 137.325 111.375C137.74 111.108 138.21 110.975 138.736 110.975C139.142 110.975 139.469 111.043 139.716 111.179C139.966 111.313 140.159 111.469 140.295 111.648C140.435 111.827 140.543 111.985 140.619 112.121H140.696V108.878H141.97V117.605H140.726V116.587H140.619C140.543 116.726 140.432 116.885 140.287 117.064C140.145 117.243 139.949 117.4 139.699 117.533C139.449 117.667 139.125 117.733 138.727 117.733ZM139.008 116.647C139.375 116.647 139.685 116.55 139.937 116.357C140.193 116.161 140.386 115.89 140.517 115.543C140.651 115.196 140.717 114.793 140.717 114.333C140.717 113.878 140.652 113.48 140.521 113.14C140.391 112.799 140.199 112.533 139.946 112.343C139.693 112.152 139.381 112.057 139.008 112.057C138.625 112.057 138.305 112.157 138.05 112.355C137.794 112.554 137.601 112.826 137.47 113.169C137.342 113.513 137.278 113.901 137.278 114.333C137.278 114.77 137.344 115.164 137.474 115.513C137.605 115.863 137.798 116.14 138.054 116.344C138.312 116.546 138.631 116.647 139.008 116.647Z" fill="#6F7373"/>
<path d="M19.231 117.226C18.67 117.224 18.1906 117.076 17.7928 116.782C17.3951 116.489 17.0909 116.061 16.8802 115.5C16.6695 114.939 16.5641 114.263 16.5641 113.473C16.5641 112.684 16.6695 112.011 16.8802 111.452C17.0933 110.893 17.3987 110.467 17.7964 110.174C18.1965 109.88 18.6747 109.733 19.231 109.733C19.7874 109.733 20.2644 109.881 20.6622 110.177C21.0599 110.471 21.3641 110.897 21.5748 111.456C21.7879 112.012 21.8944 112.684 21.8944 113.473C21.8944 114.266 21.789 114.943 21.5783 115.504C21.3676 116.063 21.0634 116.49 20.6657 116.786C20.268 117.079 19.7898 117.226 19.231 117.226ZM19.231 116.278C19.7235 116.278 20.1082 116.038 20.3852 115.557C20.6645 115.077 20.8042 114.382 20.8042 113.473C20.8042 112.869 20.7403 112.359 20.6124 111.942C20.487 111.523 20.3059 111.206 20.0691 110.99C19.8347 110.773 19.5554 110.664 19.231 110.664C18.741 110.664 18.3563 110.905 18.0769 111.388C17.7976 111.871 17.6567 112.566 17.6543 113.473C17.6543 114.079 17.7171 114.591 17.8426 115.01C17.9704 115.427 18.1515 115.743 18.3859 115.958C18.6203 116.172 18.902 116.278 19.231 116.278ZM25.5725 109.733C25.8968 109.736 26.2164 109.795 26.5313 109.911C26.8462 110.027 27.1303 110.216 27.3836 110.479C27.6392 110.742 27.8428 111.097 27.9944 111.544C28.1482 111.989 28.2264 112.543 28.2287 113.206C28.2287 113.843 28.1648 114.41 28.037 114.907C27.9091 115.402 27.7257 115.82 27.4866 116.161C27.2498 116.502 26.9622 116.761 26.6236 116.939C26.2851 117.116 25.9039 117.205 25.4802 117.205C25.0469 117.205 24.6622 117.12 24.326 116.949C23.9899 116.779 23.7164 116.543 23.5057 116.243C23.295 115.94 23.1636 115.592 23.1116 115.199H24.1946C24.2657 115.511 24.4101 115.764 24.6279 115.958C24.8481 116.15 25.1321 116.246 25.4802 116.246C26.0128 116.246 26.4283 116.014 26.7266 115.55C27.0249 115.084 27.1752 114.433 27.1776 113.597H27.1208C26.9977 113.801 26.8438 113.976 26.6591 114.123C26.4768 114.269 26.2721 114.383 26.0448 114.463C25.8175 114.544 25.5749 114.584 25.3168 114.584C24.8978 114.584 24.5166 114.481 24.1733 114.275C23.8301 114.069 23.5566 113.786 23.353 113.426C23.1494 113.067 23.0476 112.656 23.0476 112.194C23.0476 111.735 23.1518 111.318 23.3601 110.944C23.5708 110.57 23.8644 110.274 24.2408 110.056C24.6196 109.836 25.0635 109.729 25.5725 109.733ZM25.576 110.657C25.2991 110.657 25.0493 110.725 24.8267 110.863C24.6066 110.998 24.4326 111.181 24.3047 111.413C24.1769 111.643 24.113 111.898 24.113 112.18C24.113 112.462 24.1745 112.717 24.2976 112.947C24.4231 113.174 24.5936 113.355 24.809 113.49C25.0268 113.623 25.2754 113.689 25.5547 113.689C25.7631 113.689 25.9572 113.649 26.1371 113.569C26.317 113.488 26.4745 113.377 26.6094 113.235C26.7444 113.09 26.8497 112.927 26.9255 112.745C27.0012 112.562 27.0391 112.371 27.0391 112.169C27.0391 111.902 26.9752 111.653 26.8473 111.424C26.7219 111.194 26.5491 111.009 26.3289 110.87C26.1087 110.728 25.8578 110.657 25.576 110.657ZM30.2254 116.203C30.0312 116.203 29.8643 116.135 29.7247 115.998C29.585 115.858 29.5151 115.69 29.5151 115.493C29.5151 115.299 29.585 115.133 29.7247 114.996C29.8643 114.856 30.0312 114.787 30.2254 114.787C30.4195 114.787 30.5864 114.856 30.7261 114.996C30.8658 115.133 30.9356 115.299 30.9356 115.493C30.9356 115.623 30.9024 115.743 30.8362 115.852C30.7722 115.958 30.687 116.044 30.5805 116.108C30.4739 116.172 30.3556 116.203 30.2254 116.203ZM30.2254 112.56C30.0312 112.56 29.8643 112.491 29.7247 112.354C29.585 112.214 29.5151 112.046 29.5151 111.85C29.5151 111.656 29.585 111.49 29.7247 111.353C29.8643 111.213 30.0312 111.143 30.2254 111.143C30.4195 111.143 30.5864 111.213 30.7261 111.353C30.8658 111.49 30.9356 111.656 30.9356 111.85C30.9356 111.98 30.9024 112.1 30.8362 112.208C30.7722 112.315 30.687 112.4 30.5805 112.464C30.4739 112.528 30.3556 112.56 30.2254 112.56ZM35.1028 109.833V117.105H34.002V110.934H33.9594L32.2193 112.07V111.019L34.034 109.833H35.1028ZM39.6092 117.205C39.2849 117.2 38.9653 117.141 38.6504 117.027C38.3379 116.914 38.0538 116.724 37.7982 116.459C37.5425 116.194 37.3377 115.838 37.1838 115.39C37.0323 114.943 36.9565 114.384 36.9565 113.714C36.9565 113.08 37.0193 112.516 37.1448 112.024C37.2726 111.531 37.4561 111.116 37.6952 110.777C37.9343 110.436 38.2231 110.177 38.5617 110C38.9002 109.822 39.2802 109.733 39.7016 109.733C40.1348 109.733 40.5195 109.819 40.8557 109.989C41.1919 110.159 41.4641 110.395 41.6725 110.696C41.8832 110.996 42.0169 111.338 42.0737 111.722H40.9906C40.9172 111.419 40.7716 111.172 40.5538 110.98C40.336 110.788 40.052 110.692 39.7016 110.692C39.1689 110.692 38.7534 110.924 38.4551 111.388C38.1592 111.852 38.01 112.497 38.0077 113.324H38.0609C38.1864 113.118 38.3403 112.942 38.5226 112.798C38.7073 112.651 38.9132 112.539 39.1405 112.461C39.3701 112.38 39.6116 112.34 39.8649 112.34C40.2863 112.34 40.6675 112.443 41.0084 112.649C41.3517 112.852 41.6251 113.134 41.8287 113.494C42.0323 113.854 42.1341 114.266 42.1341 114.73C42.1341 115.194 42.0287 115.614 41.818 115.99C41.6097 116.367 41.3162 116.665 40.9374 116.885C40.5586 117.103 40.1159 117.21 39.6092 117.205ZM39.6057 116.282C39.885 116.282 40.1348 116.213 40.355 116.076C40.5752 115.938 40.7492 115.754 40.877 115.522C41.0048 115.29 41.0688 115.03 41.0688 114.744C41.0688 114.465 41.006 114.21 40.8805 113.98C40.7574 113.751 40.587 113.569 40.3692 113.434C40.1537 113.299 39.9075 113.231 39.6305 113.231C39.4198 113.231 39.2245 113.271 39.0446 113.352C38.8671 113.432 38.7108 113.544 38.5759 113.686C38.4409 113.828 38.3344 113.991 38.2563 114.176C38.1805 114.358 38.1426 114.551 38.1426 114.755C38.1426 115.027 38.2054 115.279 38.3308 115.511C38.4587 115.743 38.6327 115.93 38.8528 116.072C39.0754 116.212 39.3263 116.282 39.6057 116.282Z" fill="#494D4D"/>
<circle cx="56.7053" cy="113.105" r="4.5" fill="url(#paint1_linear_768_2)"/>
<path d="M70.5776 157.605H69.1799L72.3205 148.878H73.8418L76.9824 157.605H75.5847L73.1174 150.463H73.0492L70.5776 157.605ZM70.812 154.188H75.3461V155.296H70.812V154.188ZM78.1405 160.06V151.06H79.3848V152.121H79.4913C79.5652 151.985 79.6717 151.827 79.8109 151.648C79.9501 151.469 80.1433 151.313 80.3905 151.179C80.6376 151.043 80.9643 150.975 81.3706 150.975C81.899 150.975 82.3706 151.108 82.7854 151.375C83.2001 151.642 83.5254 152.027 83.7612 152.53C83.9998 153.033 84.1192 153.638 84.1192 154.346C84.1192 155.053 84.0013 155.659 83.7655 156.165C83.5297 156.668 83.2058 157.056 82.7939 157.328C82.3819 157.598 81.9118 157.733 81.3834 157.733C80.9856 157.733 80.6604 157.667 80.4075 157.533C80.1575 157.4 79.9615 157.243 79.8194 157.064C79.6774 156.885 79.568 156.726 79.4913 156.587H79.4146V160.06H78.1405ZM79.389 154.333C79.389 154.793 79.4558 155.196 79.5893 155.543C79.7229 155.89 79.916 156.161 80.1689 156.357C80.4217 156.55 80.7314 156.647 81.0979 156.647C81.4785 156.647 81.7967 156.546 82.0524 156.344C82.3081 156.14 82.5013 155.863 82.6319 155.513C82.7655 155.164 82.8322 154.77 82.8322 154.333C82.8322 153.901 82.7669 153.513 82.6362 153.169C82.5084 152.826 82.3152 152.554 82.0567 152.355C81.801 152.157 81.4814 152.057 81.0979 152.057C80.7285 152.057 80.416 152.152 80.1604 152.343C79.9075 152.533 79.7158 152.799 79.5851 153.14C79.4544 153.48 79.389 153.878 79.389 154.333ZM85.5467 160.06V151.06H86.791V152.121H86.8976C86.9714 151.985 87.078 151.827 87.2172 151.648C87.3564 151.469 87.5496 151.313 87.7967 151.179C88.0439 151.043 88.3706 150.975 88.7768 150.975C89.3052 150.975 89.7768 151.108 90.1916 151.375C90.6064 151.642 90.9317 152.027 91.1675 152.53C91.4061 153.033 91.5254 153.638 91.5254 154.346C91.5254 155.053 91.4075 155.659 91.1717 156.165C90.9359 156.668 90.6121 157.056 90.2001 157.328C89.7882 157.598 89.318 157.733 88.7896 157.733C88.3919 157.733 88.0666 157.667 87.8138 157.533C87.5638 157.4 87.3677 157.243 87.2257 157.064C87.0837 156.885 86.9743 156.726 86.8976 156.587H86.8209V160.06H85.5467ZM86.7953 154.333C86.7953 154.793 86.8621 155.196 86.9956 155.543C87.1291 155.89 87.3223 156.161 87.5751 156.357C87.828 156.55 88.1376 156.647 88.5041 156.647C88.8848 156.647 89.203 156.546 89.4587 156.344C89.7143 156.14 89.9075 155.863 90.0382 155.513C90.1717 155.164 90.2385 154.77 90.2385 154.333C90.2385 153.901 90.1731 153.513 90.0425 153.169C89.9146 152.826 89.7214 152.554 89.4629 152.355C89.2072 152.157 88.8876 152.057 88.5041 152.057C88.1348 152.057 87.8223 152.152 87.5666 152.343C87.3138 152.533 87.122 152.799 86.9913 153.14C86.8606 153.48 86.7953 153.878 86.7953 154.333ZM92.953 157.605V151.06H94.1845V152.1H94.2527C94.372 151.748 94.5822 151.471 94.8834 151.269C95.1873 151.064 95.5311 150.962 95.9146 150.962C95.9942 150.962 96.0879 150.965 96.1959 150.971C96.3067 150.976 96.3933 150.983 96.4558 150.992V152.211C96.4047 152.196 96.3138 152.181 96.1831 152.164C96.0524 152.144 95.9217 152.134 95.791 152.134C95.4899 152.134 95.2214 152.198 94.9856 152.326C94.7527 152.451 94.568 152.625 94.4317 152.85C94.2953 153.071 94.2271 153.324 94.2271 153.608V157.605H92.953ZM100.081 157.738C99.4675 157.738 98.932 157.597 98.4746 157.316C98.0172 157.034 97.6621 156.641 97.4093 156.135C97.1564 155.63 97.03 155.039 97.03 154.363C97.03 153.684 97.1564 153.09 97.4093 152.581C97.6621 152.073 98.0172 151.678 98.4746 151.397C98.932 151.115 99.4675 150.975 100.081 150.975C100.695 150.975 101.23 151.115 101.688 151.397C102.145 151.678 102.5 152.073 102.753 152.581C103.006 153.09 103.132 153.684 103.132 154.363C103.132 155.039 103.006 155.63 102.753 156.135C102.5 156.641 102.145 157.034 101.688 157.316C101.23 157.597 100.695 157.738 100.081 157.738ZM100.085 156.668C100.483 156.668 100.813 156.563 101.074 156.353C101.335 156.142 101.529 155.863 101.654 155.513C101.781 155.164 101.845 154.779 101.845 154.358C101.845 153.941 101.781 153.557 101.654 153.208C101.529 152.855 101.335 152.573 101.074 152.36C100.813 152.147 100.483 152.04 100.085 152.04C99.6849 152.04 99.3525 152.147 99.0883 152.36C98.8269 152.573 98.6323 152.855 98.5045 153.208C98.3795 153.557 98.317 153.941 98.317 154.358C98.317 154.779 98.3795 155.164 98.5045 155.513C98.6323 155.863 98.8269 156.142 99.0883 156.353C99.3525 156.563 99.6849 156.668 100.085 156.668ZM109.931 151.06L107.558 157.605H106.194L103.816 151.06H105.184L106.842 156.097H106.91L108.563 151.06H109.931ZM113.727 157.738C113.082 157.738 112.527 157.6 112.061 157.324C111.598 157.046 111.24 156.655 110.987 156.152C110.737 155.647 110.612 155.054 110.612 154.375C110.612 153.705 110.737 153.114 110.987 152.603C111.24 152.091 111.592 151.692 112.044 151.405C112.498 151.118 113.03 150.975 113.638 150.975C114.007 150.975 114.365 151.036 114.711 151.158C115.058 151.28 115.369 151.472 115.645 151.733C115.92 151.995 116.138 152.334 116.297 152.752C116.456 153.167 116.535 153.671 116.535 154.265V154.716H111.332V153.762H115.287C115.287 153.426 115.219 153.13 115.082 152.871C114.946 152.61 114.754 152.404 114.507 152.253C114.263 152.103 113.976 152.027 113.646 152.027C113.288 152.027 112.976 152.115 112.709 152.292C112.444 152.465 112.24 152.692 112.095 152.973C111.953 153.252 111.882 153.554 111.882 153.881V154.627C111.882 155.064 111.959 155.436 112.112 155.743C112.268 156.05 112.486 156.284 112.764 156.446C113.042 156.605 113.368 156.685 113.74 156.685C113.981 156.685 114.202 156.651 114.4 156.583C114.599 156.512 114.771 156.407 114.916 156.267C115.061 156.128 115.172 155.956 115.248 155.752L116.454 155.969C116.358 156.324 116.185 156.635 115.935 156.902C115.687 157.167 115.376 157.373 115.001 157.52C114.629 157.665 114.204 157.738 113.727 157.738ZM120.399 157.733C119.871 157.733 119.399 157.598 118.985 157.328C118.573 157.056 118.249 156.668 118.013 156.165C117.78 155.659 117.664 155.053 117.664 154.346C117.664 153.638 117.781 153.033 118.017 152.53C118.256 152.027 118.583 151.642 118.997 151.375C119.412 151.108 119.882 150.975 120.408 150.975C120.814 150.975 121.141 151.043 121.388 151.179C121.638 151.313 121.831 151.469 121.968 151.648C122.107 151.827 122.215 151.985 122.291 152.121H122.368V148.878H123.642V157.605H122.398V156.587H122.291C122.215 156.726 122.104 156.885 121.959 157.064C121.817 157.243 121.621 157.4 121.371 157.533C121.121 157.667 120.797 157.733 120.399 157.733ZM120.681 156.647C121.047 156.647 121.357 156.55 121.61 156.357C121.865 156.161 122.058 155.89 122.189 155.543C122.323 155.196 122.389 154.793 122.389 154.333C122.389 153.878 122.324 153.48 122.193 153.14C122.063 152.799 121.871 152.533 121.618 152.343C121.365 152.152 121.053 152.057 120.681 152.057C120.297 152.057 119.977 152.157 119.722 152.355C119.466 152.554 119.273 152.826 119.142 153.169C119.014 153.513 118.95 153.901 118.95 154.333C118.95 154.77 119.016 155.164 119.147 155.513C119.277 155.863 119.47 156.14 119.726 156.344C119.985 156.546 120.303 156.647 120.681 156.647ZM128.739 157.605V148.878H130.013V152.121H130.09C130.164 151.985 130.27 151.827 130.409 151.648C130.548 151.469 130.742 151.313 130.989 151.179C131.236 151.043 131.563 150.975 131.969 150.975C132.497 150.975 132.969 151.108 133.384 151.375C133.798 151.642 134.124 152.027 134.36 152.53C134.598 153.033 134.718 153.638 134.718 154.346C134.718 155.053 134.6 155.659 134.364 156.165C134.128 156.668 133.804 157.056 133.392 157.328C132.98 157.598 132.51 157.733 131.982 157.733C131.584 157.733 131.259 157.667 131.006 157.533C130.756 157.4 130.56 157.243 130.418 157.064C130.276 156.885 130.166 156.726 130.09 156.587H129.983V157.605H128.739ZM129.987 154.333C129.987 154.793 130.054 155.196 130.188 155.543C130.321 155.89 130.514 156.161 130.767 156.357C131.02 156.55 131.33 156.647 131.696 156.647C132.077 156.647 132.395 156.546 132.651 156.344C132.906 156.14 133.1 155.863 133.23 155.513C133.364 155.164 133.431 154.77 133.431 154.333C133.431 153.901 133.365 153.513 133.235 153.169C133.107 152.826 132.914 152.554 132.655 152.355C132.399 152.157 132.08 152.057 131.696 152.057C131.327 152.057 131.014 152.152 130.759 152.343C130.506 152.533 130.314 152.799 130.183 153.14C130.053 153.48 129.987 153.878 129.987 154.333ZM136.731 160.06C136.541 160.06 136.367 160.044 136.211 160.013C136.055 159.985 135.938 159.953 135.862 159.919L136.169 158.875C136.401 158.938 136.609 158.965 136.791 158.956C136.973 158.948 137.133 158.88 137.272 158.752C137.414 158.624 137.539 158.415 137.647 158.125L137.805 157.691L135.41 151.06H136.774L138.431 156.14H138.499L140.157 151.06H141.525L138.828 158.479C138.703 158.82 138.544 159.108 138.35 159.344C138.157 159.583 137.927 159.762 137.66 159.881C137.393 160 137.083 160.06 136.731 160.06ZM69.7381 172.605V166.06H70.9611V167.125H71.0421C71.1785 166.765 71.4015 166.483 71.7111 166.282C72.0208 166.077 72.3915 165.975 72.8234 165.975C73.2609 165.975 73.6273 166.077 73.9228 166.282C74.2211 166.486 74.4413 166.767 74.5833 167.125H74.6515C74.8077 166.776 75.0563 166.498 75.3972 166.29C75.7381 166.08 76.1444 165.975 76.616 165.975C77.2097 165.975 77.6941 166.161 78.0691 166.533C78.4469 166.905 78.6359 167.466 78.6359 168.216V172.605H77.3617V168.336C77.3617 167.892 77.241 167.571 76.9995 167.373C76.758 167.174 76.4697 167.074 76.1344 167.074C75.7197 167.074 75.3972 167.202 75.1671 167.458C74.937 167.711 74.8219 168.036 74.8219 168.434V172.605H73.552V168.255C73.552 167.9 73.4413 167.614 73.2197 167.398C72.9981 167.182 72.7097 167.074 72.3546 167.074C72.1131 167.074 71.8901 167.138 71.6856 167.266C71.4839 167.391 71.3205 167.566 71.1955 167.79C71.0734 168.015 71.0123 168.275 71.0123 168.57V172.605H69.7381ZM82.2484 172.75C81.8337 172.75 81.4587 172.674 81.1234 172.52C80.7882 172.364 80.5226 172.138 80.3265 171.843C80.1334 171.547 80.0368 171.185 80.0368 170.756C80.0368 170.387 80.1078 170.083 80.2498 169.844C80.3919 169.605 80.5837 169.417 80.8251 169.277C81.0666 169.138 81.3365 169.033 81.6348 168.962C81.9331 168.891 82.2371 168.837 82.5467 168.8C82.9388 168.755 83.2569 168.718 83.5013 168.689C83.7456 168.658 83.9231 168.608 84.0339 168.54C84.1447 168.472 84.2001 168.361 84.2001 168.208V168.178C84.2001 167.806 84.095 167.517 83.8848 167.313C83.6774 167.108 83.3677 167.006 82.9558 167.006C82.5268 167.006 82.1888 167.101 81.9416 167.292C81.6973 167.479 81.5283 167.688 81.4345 167.918L80.2371 167.645C80.3791 167.248 80.5865 166.926 80.8592 166.682C81.1348 166.435 81.4515 166.256 81.8095 166.145C82.1675 166.032 82.5439 165.975 82.9388 165.975C83.2001 165.975 83.4771 166.006 83.7697 166.069C84.0652 166.128 84.3408 166.239 84.5964 166.401C84.855 166.563 85.0666 166.794 85.2314 167.096C85.3962 167.394 85.4785 167.782 85.4785 168.259V172.605H84.2342V171.711H84.1831C84.1007 171.875 83.9771 172.037 83.8123 172.196C83.6476 172.355 83.4359 172.488 83.1774 172.593C82.9189 172.698 82.6092 172.75 82.2484 172.75ZM82.5254 171.728C82.8777 171.728 83.1788 171.658 83.4288 171.519C83.6817 171.38 83.8734 171.198 84.0041 170.973C84.1376 170.746 84.2044 170.503 84.2044 170.245V169.401C84.1589 169.446 84.0709 169.489 83.9402 169.529C83.8123 169.566 83.666 169.598 83.5013 169.627C83.3365 169.652 83.176 169.676 83.0197 169.699C82.8635 169.719 82.7328 169.736 82.6277 169.75C82.3805 169.782 82.1547 169.834 81.9501 169.908C81.7484 169.982 81.5865 170.088 81.4643 170.228C81.345 170.364 81.2854 170.546 81.2854 170.773C81.2854 171.088 81.4018 171.327 81.6348 171.489C81.8677 171.648 82.1646 171.728 82.5254 171.728ZM88.4498 168.719V172.605H87.1756V166.06H88.3986V167.125H88.4796C88.6302 166.779 88.866 166.5 89.187 166.29C89.5109 166.08 89.9185 165.975 90.41 165.975C90.856 165.975 91.2466 166.069 91.5819 166.256C91.9171 166.441 92.177 166.716 92.3617 167.083C92.5464 167.449 92.6387 167.902 92.6387 168.442V172.605H91.3645V168.596C91.3645 168.121 91.241 167.75 90.9938 167.483C90.7466 167.213 90.4072 167.078 89.9753 167.078C89.6799 167.078 89.4171 167.142 89.187 167.27C88.9597 167.398 88.7793 167.586 88.6458 167.833C88.5151 168.077 88.4498 168.373 88.4498 168.719ZM96.2523 172.75C95.8376 172.75 95.4626 172.674 95.1273 172.52C94.7921 172.364 94.5265 172.138 94.3305 171.843C94.1373 171.547 94.0407 171.185 94.0407 170.756C94.0407 170.387 94.1117 170.083 94.2538 169.844C94.3958 169.605 94.5876 169.417 94.829 169.277C95.0705 169.138 95.3404 169.033 95.6387 168.962C95.937 168.891 96.241 168.837 96.5506 168.8C96.9427 168.755 97.2609 168.718 97.5052 168.689C97.7495 168.658 97.927 168.608 98.0378 168.54C98.1486 168.472 98.204 168.361 98.204 168.208V168.178C98.204 167.806 98.0989 167.517 97.8887 167.313C97.6813 167.108 97.3716 167.006 96.9597 167.006C96.5307 167.006 96.1927 167.101 95.9455 167.292C95.7012 167.479 95.5322 167.688 95.4384 167.918L94.241 167.645C94.383 167.248 94.5904 166.926 94.8631 166.682C95.1387 166.435 95.4555 166.256 95.8134 166.145C96.1714 166.032 96.5478 165.975 96.9427 165.975C97.204 165.975 97.481 166.006 97.7736 166.069C98.0691 166.128 98.3447 166.239 98.6003 166.401C98.8589 166.563 99.0705 166.794 99.2353 167.096C99.4001 167.394 99.4824 167.782 99.4824 168.259V172.605H98.2381V171.711H98.187C98.1046 171.875 97.981 172.037 97.8163 172.196C97.6515 172.355 97.4398 172.488 97.1813 172.593C96.9228 172.698 96.6131 172.75 96.2523 172.75ZM96.5293 171.728C96.8816 171.728 97.1827 171.658 97.4327 171.519C97.6856 171.38 97.8773 171.198 98.008 170.973C98.1415 170.746 98.2083 170.503 98.2083 170.245V169.401C98.1628 169.446 98.0748 169.489 97.9441 169.529C97.8163 169.566 97.6699 169.598 97.5052 169.627C97.3404 169.652 97.1799 169.676 97.0236 169.699C96.8674 169.719 96.7367 169.736 96.6316 169.75C96.3844 169.782 96.1586 169.834 95.954 169.908C95.7523 169.982 95.5904 170.088 95.4682 170.228C95.3489 170.364 95.2893 170.546 95.2893 170.773C95.2893 171.088 95.4057 171.327 95.6387 171.489C95.8716 171.648 96.1685 171.728 96.5293 171.728ZM103.924 175.196C103.404 175.196 102.957 175.128 102.582 174.992C102.209 174.855 101.905 174.675 101.67 174.451C101.434 174.226 101.258 173.98 101.141 173.713L102.236 173.262C102.313 173.387 102.415 173.519 102.543 173.658C102.674 173.8 102.85 173.921 103.072 174.02C103.296 174.12 103.584 174.169 103.937 174.169C104.42 174.169 104.819 174.051 105.134 173.816C105.449 173.583 105.607 173.211 105.607 172.699V171.412H105.526C105.449 171.551 105.339 171.706 105.194 171.877C105.052 172.047 104.856 172.195 104.606 172.32C104.356 172.445 104.03 172.507 103.63 172.507C103.113 172.507 102.647 172.387 102.232 172.145C101.82 171.901 101.493 171.542 101.252 171.067C101.013 170.59 100.894 170.003 100.894 169.307C100.894 168.611 101.012 168.015 101.248 167.517C101.486 167.02 101.813 166.64 102.228 166.375C102.643 166.108 103.113 165.975 103.638 165.975C104.045 165.975 104.373 166.043 104.623 166.179C104.873 166.313 105.067 166.469 105.207 166.648C105.349 166.827 105.458 166.985 105.535 167.121H105.628V166.06H106.877V172.75C106.877 173.313 106.746 173.775 106.485 174.135C106.224 174.496 105.87 174.763 105.424 174.936C104.981 175.11 104.481 175.196 103.924 175.196ZM103.911 171.451C104.278 171.451 104.587 171.365 104.84 171.195C105.096 171.022 105.289 170.775 105.42 170.453C105.553 170.13 105.62 169.742 105.62 169.29C105.62 168.85 105.555 168.462 105.424 168.127C105.293 167.792 105.101 167.53 104.849 167.343C104.596 167.152 104.283 167.057 103.911 167.057C103.528 167.057 103.208 167.157 102.952 167.355C102.697 167.551 102.503 167.819 102.373 168.157C102.245 168.495 102.181 168.873 102.181 169.29C102.181 169.719 102.246 170.096 102.377 170.419C102.508 170.743 102.701 170.996 102.957 171.178C103.215 171.36 103.533 171.451 103.911 171.451ZM111.407 172.738C110.762 172.738 110.207 172.6 109.741 172.324C109.278 172.046 108.92 171.655 108.667 171.152C108.417 170.647 108.292 170.054 108.292 169.375C108.292 168.705 108.417 168.114 108.667 167.603C108.92 167.091 109.272 166.692 109.724 166.405C110.178 166.118 110.709 165.975 111.317 165.975C111.687 165.975 112.045 166.036 112.391 166.158C112.738 166.28 113.049 166.472 113.324 166.733C113.6 166.995 113.817 167.334 113.976 167.752C114.135 168.167 114.215 168.671 114.215 169.265V169.716H109.012V168.762H112.966C112.966 168.426 112.898 168.13 112.762 167.871C112.626 167.61 112.434 167.404 112.187 167.253C111.942 167.103 111.655 167.027 111.326 167.027C110.968 167.027 110.655 167.115 110.388 167.292C110.124 167.465 109.92 167.692 109.775 167.973C109.633 168.252 109.562 168.554 109.562 168.881V169.627C109.562 170.064 109.638 170.436 109.792 170.743C109.948 171.05 110.165 171.284 110.444 171.446C110.722 171.605 111.047 171.685 111.42 171.685C111.661 171.685 111.881 171.651 112.08 171.583C112.279 171.512 112.451 171.407 112.596 171.267C112.741 171.128 112.851 170.956 112.928 170.752L114.134 170.969C114.037 171.324 113.864 171.635 113.614 171.902C113.367 172.167 113.056 172.373 112.681 172.52C112.309 172.665 111.884 172.738 111.407 172.738ZM115.629 172.605V166.06H116.86V167.1H116.928C117.048 166.748 117.258 166.471 117.559 166.269C117.863 166.064 118.207 165.962 118.59 165.962C118.67 165.962 118.764 165.965 118.872 165.971C118.982 165.976 119.069 165.983 119.132 165.992V167.211C119.08 167.196 118.99 167.181 118.859 167.164C118.728 167.144 118.598 167.134 118.467 167.134C118.166 167.134 117.897 167.198 117.661 167.326C117.428 167.451 117.244 167.625 117.107 167.85C116.971 168.071 116.903 168.324 116.903 168.608V172.605H115.629Z" fill="#6F7373"/>
<path d="M19.2313 157.226C18.6702 157.224 18.1908 157.076 17.7931 156.782C17.3954 156.489 17.0911 156.061 16.8804 155.5C16.6697 154.939 16.5644 154.263 16.5644 153.473C16.5644 152.684 16.6697 152.011 16.8804 151.452C17.0935 150.893 17.3989 150.467 17.7966 150.174C18.1967 149.88 18.6749 149.733 19.2313 149.733C19.7876 149.733 20.2647 149.881 20.6624 150.177C21.0601 150.471 21.3643 150.897 21.575 151.456C21.7881 152.012 21.8946 152.684 21.8946 153.473C21.8946 154.266 21.7893 154.943 21.5786 155.504C21.3679 156.063 21.0637 156.49 20.6659 156.786C20.2682 157.079 19.79 157.226 19.2313 157.226ZM19.2313 156.278C19.7237 156.278 20.1084 156.038 20.3854 155.557C20.6648 155.077 20.8044 154.382 20.8044 153.473C20.8044 152.869 20.7405 152.359 20.6127 151.942C20.4872 151.523 20.3061 151.206 20.0694 150.99C19.835 150.773 19.5556 150.664 19.2313 150.664C18.7412 150.664 18.3565 150.905 18.0772 151.388C17.7978 151.871 17.657 152.566 17.6546 153.473C17.6546 154.079 17.7173 154.591 17.8428 155.01C17.9706 155.427 18.1517 155.743 18.3861 155.958C18.6205 156.172 18.9022 156.278 19.2313 156.278ZM25.5727 149.733C25.8971 149.736 26.2167 149.795 26.5315 149.911C26.8464 150.027 27.1305 150.216 27.3838 150.479C27.6395 150.742 27.8431 151.097 27.9946 151.544C28.1485 151.989 28.2266 152.543 28.229 153.206C28.229 153.843 28.1651 154.41 28.0372 154.907C27.9094 155.402 27.7259 155.82 27.4868 156.161C27.2501 156.502 26.9624 156.761 26.6239 156.939C26.2853 157.116 25.9042 157.205 25.4804 157.205C25.0472 157.205 24.6625 157.12 24.3263 156.949C23.9901 156.779 23.7167 156.543 23.506 156.243C23.2953 155.94 23.1639 155.592 23.1118 155.199H24.1949C24.2659 155.511 24.4103 155.764 24.6281 155.958C24.8483 156.15 25.1324 156.246 25.4804 156.246C26.0131 156.246 26.4286 156.014 26.7269 155.55C27.0251 155.084 27.1755 154.433 27.1778 153.597H27.121C26.9979 153.801 26.844 153.976 26.6594 154.123C26.4771 154.269 26.2723 154.383 26.045 154.463C25.8178 154.544 25.5751 154.584 25.317 154.584C24.898 154.584 24.5169 154.481 24.1736 154.275C23.8303 154.069 23.5569 153.786 23.3533 153.426C23.1497 153.067 23.0479 152.656 23.0479 152.194C23.0479 151.735 23.152 151.318 23.3604 150.944C23.5711 150.57 23.8646 150.274 24.2411 150.056C24.6198 149.836 25.0637 149.729 25.5727 149.733ZM25.5763 150.657C25.2993 150.657 25.0495 150.725 24.827 150.863C24.6068 150.998 24.4328 151.181 24.305 151.413C24.1771 151.643 24.1132 151.898 24.1132 152.18C24.1132 152.462 24.1748 152.717 24.2979 152.947C24.4233 153.174 24.5938 153.355 24.8092 153.49C25.027 153.623 25.2756 153.689 25.555 153.689C25.7633 153.689 25.9574 153.649 26.1374 153.569C26.3173 153.488 26.4747 153.377 26.6097 153.235C26.7446 153.09 26.85 152.927 26.9257 152.745C27.0015 152.562 27.0394 152.371 27.0394 152.169C27.0394 151.902 26.9754 151.653 26.8476 151.424C26.7221 151.194 26.5493 151.009 26.3291 150.87C26.109 150.728 25.858 150.657 25.5763 150.657ZM30.2256 156.203C30.0315 156.203 29.8646 156.135 29.7249 155.998C29.5852 155.858 29.5154 155.69 29.5154 155.493C29.5154 155.299 29.5852 155.133 29.7249 154.996C29.8646 154.856 30.0315 154.787 30.2256 154.787C30.4197 154.787 30.5866 154.856 30.7263 154.996C30.866 155.133 30.9358 155.299 30.9358 155.493C30.9358 155.623 30.9027 155.743 30.8364 155.852C30.7725 155.958 30.6873 156.044 30.5807 156.108C30.4742 156.172 30.3558 156.203 30.2256 156.203ZM30.2256 152.56C30.0315 152.56 29.8646 152.491 29.7249 152.354C29.5852 152.214 29.5154 152.046 29.5154 151.85C29.5154 151.656 29.5852 151.49 29.7249 151.353C29.8646 151.213 30.0315 151.143 30.2256 151.143C30.4197 151.143 30.5866 151.213 30.7263 151.353C30.866 151.49 30.9358 151.656 30.9358 151.85C30.9358 151.98 30.9027 152.1 30.8364 152.208C30.7725 152.315 30.6873 152.4 30.5807 152.464C30.4742 152.528 30.3558 152.56 30.2256 152.56ZM35.1031 149.833V157.105H34.0022V150.934H33.9596L32.2196 152.07V151.019L34.0342 149.833H35.1031ZM36.9177 155.685V154.797L40.0605 149.833H40.7601V151.14H40.3162L38.0683 154.698V154.755H42.3758V155.685H36.9177ZM40.3659 157.105V155.415L40.373 155.01V149.833H41.4135V157.105H40.3659Z" fill="#494D4D"/>
<circle cx="56.7056" cy="153.105" r="4.5" fill="url(#paint2_linear_768_2)"/>
<path d="M69.8402 210.768V202.041H75.3117V203.174H71.1569V205.833H75.0262V206.963H71.1569V209.635H75.3629V210.768H69.8402ZM81.8732 205.821L80.7184 206.025C80.6701 205.877 80.5934 205.737 80.4882 205.603C80.386 205.47 80.2468 205.36 80.0706 205.275C79.8945 205.19 79.6743 205.147 79.4101 205.147C79.0493 205.147 78.7482 205.228 78.5067 205.39C78.2652 205.549 78.1445 205.755 78.1445 206.008C78.1445 206.227 78.2255 206.403 78.3874 206.537C78.5493 206.67 78.8107 206.779 79.1715 206.865L80.2112 207.103C80.8135 207.242 81.2624 207.457 81.5578 207.747C81.8533 208.037 82.001 208.413 82.001 208.876C82.001 209.268 81.8874 209.617 81.6601 209.924C81.4357 210.228 81.1218 210.467 80.7184 210.64C80.3178 210.814 79.8533 210.9 79.3249 210.9C78.5919 210.9 77.9939 210.744 77.5309 210.431C77.0678 210.116 76.7837 209.669 76.6786 209.089L77.9101 208.902C77.9868 209.223 78.1445 209.466 78.3831 209.63C78.6218 209.792 78.9328 209.873 79.3164 209.873C79.734 209.873 80.0678 209.787 80.3178 209.613C80.5678 209.437 80.6928 209.223 80.6928 208.97C80.6928 208.765 80.6161 208.593 80.4627 208.454C80.3121 208.315 80.0806 208.21 79.7681 208.139L78.6601 207.896C78.0493 207.757 77.5976 207.535 77.305 207.231C77.0152 206.927 76.8703 206.542 76.8703 206.076C76.8703 205.69 76.9783 205.352 77.1942 205.062C77.4101 204.772 77.7084 204.546 78.0891 204.385C78.4698 204.22 78.9059 204.137 79.3973 204.137C80.1047 204.137 80.6615 204.291 81.0678 204.598C81.474 204.902 81.7425 205.309 81.8732 205.821ZM86.159 210.9C85.5255 210.9 84.9801 210.757 84.5227 210.47C84.0681 210.18 83.7187 209.781 83.4744 209.272C83.2301 208.764 83.1079 208.181 83.1079 207.525C83.1079 206.86 83.2329 206.274 83.4829 205.765C83.7329 205.254 84.0852 204.855 84.5397 204.568C84.9943 204.281 85.5298 204.137 86.1463 204.137C86.6434 204.137 87.0866 204.23 87.4758 204.414C87.865 204.596 88.1789 204.852 88.4176 205.181C88.659 205.511 88.8025 205.896 88.848 206.336H87.6079C87.5397 206.029 87.3835 205.765 87.1392 205.544C86.8977 205.322 86.5738 205.211 86.1676 205.211C85.8125 205.211 85.5014 205.305 85.2343 205.492C84.9701 205.677 84.7642 205.941 84.6164 206.285C84.4687 206.626 84.3948 207.029 84.3948 207.495C84.3948 207.973 84.4673 208.385 84.6122 208.731C84.7571 209.078 84.9616 209.346 85.2258 209.537C85.4929 209.727 85.8068 209.822 86.1676 209.822C86.409 209.822 86.6278 209.778 86.8238 209.69C87.0227 209.599 87.1889 209.47 87.3224 209.302C87.4588 209.135 87.5539 208.933 87.6079 208.697H88.848C88.8025 209.12 88.6647 209.498 88.4346 209.831C88.2045 210.163 87.8963 210.424 87.5099 210.615C87.1264 210.805 86.6761 210.9 86.159 210.9ZM92.1154 210.913C91.7006 210.913 91.3256 210.836 90.9904 210.683C90.6551 210.527 90.3895 210.301 90.1935 210.005C90.0003 209.71 89.9037 209.348 89.9037 208.919C89.9037 208.549 89.9747 208.245 90.1168 208.007C90.2588 207.768 90.4506 207.579 90.6921 207.44C90.9335 207.301 91.2034 207.196 91.5017 207.125C91.8 207.054 92.104 207 92.4137 206.963C92.8057 206.917 93.1239 206.88 93.3682 206.852C93.6125 206.821 93.7901 206.771 93.9009 206.703C94.0117 206.635 94.0671 206.524 94.0671 206.37V206.341C94.0671 205.968 93.962 205.68 93.7517 205.475C93.5443 205.271 93.2347 205.169 92.8228 205.169C92.3938 205.169 92.0557 205.264 91.8085 205.454C91.5642 205.642 91.3952 205.85 91.3014 206.081L90.104 205.808C90.246 205.41 90.4534 205.089 90.7262 204.845C91.0017 204.598 91.3185 204.419 91.6764 204.308C92.0344 204.194 92.4108 204.137 92.8057 204.137C93.0671 204.137 93.3441 204.169 93.6367 204.231C93.9321 204.291 94.2077 204.402 94.4634 204.564C94.7219 204.725 94.9335 204.957 95.0983 205.258C95.2631 205.556 95.3455 205.944 95.3455 206.421V210.768H94.1012V209.873H94.05C93.9676 210.038 93.8441 210.2 93.6793 210.359C93.5145 210.518 93.3029 210.65 93.0443 210.755C92.7858 210.86 92.4762 210.913 92.1154 210.913ZM92.3924 209.89C92.7446 209.89 93.0458 209.821 93.2958 209.681C93.5486 209.542 93.7404 209.36 93.871 209.136C94.0046 208.909 94.0713 208.666 94.0713 208.407V207.564C94.0259 207.609 93.9378 207.652 93.8071 207.691C93.6793 207.728 93.533 207.761 93.3682 207.789C93.2034 207.815 93.0429 207.839 92.8867 207.862C92.7304 207.882 92.5997 207.899 92.4946 207.913C92.2475 207.944 92.0216 207.997 91.8171 208.071C91.6154 208.144 91.4534 208.251 91.3313 208.39C91.212 208.527 91.1523 208.708 91.1523 208.936C91.1523 209.251 91.2688 209.49 91.5017 209.652C91.7347 209.811 92.0316 209.89 92.3924 209.89ZM98.3167 202.041V210.768H97.0426V202.041H98.3167ZM101.936 210.913C101.521 210.913 101.146 210.836 100.811 210.683C100.475 210.527 100.21 210.301 100.014 210.005C99.8206 209.71 99.724 209.348 99.724 208.919C99.724 208.549 99.7951 208.245 99.9371 208.007C100.079 207.768 100.271 207.579 100.512 207.44C100.754 207.301 101.024 207.196 101.322 207.125C101.62 207.054 101.924 207 102.234 206.963C102.626 206.917 102.944 206.88 103.189 206.852C103.433 206.821 103.61 206.771 103.721 206.703C103.832 206.635 103.887 206.524 103.887 206.37V206.341C103.887 205.968 103.782 205.68 103.572 205.475C103.365 205.271 103.055 205.169 102.643 205.169C102.214 205.169 101.876 205.264 101.629 205.454C101.385 205.642 101.216 205.85 101.122 206.081L99.9243 205.808C100.066 205.41 100.274 205.089 100.546 204.845C100.822 204.598 101.139 204.419 101.497 204.308C101.855 204.194 102.231 204.137 102.626 204.137C102.887 204.137 103.164 204.169 103.457 204.231C103.752 204.291 104.028 204.402 104.284 204.564C104.542 204.725 104.754 204.957 104.919 205.258C105.083 205.556 105.166 205.944 105.166 206.421V210.768H103.921V209.873H103.87C103.788 210.038 103.664 210.2 103.5 210.359C103.335 210.518 103.123 210.65 102.865 210.755C102.606 210.86 102.296 210.913 101.936 210.913ZM102.213 209.89C102.565 209.89 102.866 209.821 103.116 209.681C103.369 209.542 103.561 209.36 103.691 209.136C103.825 208.909 103.892 208.666 103.892 208.407V207.564C103.846 207.609 103.758 207.652 103.627 207.691C103.5 207.728 103.353 207.761 103.189 207.789C103.024 207.815 102.863 207.839 102.707 207.862C102.551 207.882 102.42 207.899 102.315 207.913C102.068 207.944 101.842 207.997 101.637 208.071C101.436 208.144 101.274 208.251 101.152 208.39C101.032 208.527 100.973 208.708 100.973 208.936C100.973 209.251 101.089 209.49 101.322 209.652C101.555 209.811 101.852 209.89 102.213 209.89ZM109.918 204.223V205.245H106.343V204.223H109.918ZM107.302 202.654H108.576V208.846C108.576 209.093 108.613 209.279 108.687 209.404C108.761 209.527 108.856 209.61 108.972 209.656C109.092 209.698 109.221 209.72 109.36 209.72C109.462 209.72 109.552 209.713 109.629 209.698C109.705 209.684 109.765 209.673 109.807 209.664L110.038 210.717C109.964 210.745 109.859 210.774 109.722 210.802C109.586 210.833 109.415 210.85 109.211 210.853C108.876 210.859 108.563 210.799 108.273 210.674C107.984 210.549 107.749 210.356 107.57 210.095C107.391 209.833 107.302 209.505 107.302 209.11V202.654ZM111.328 210.768V204.223H112.602V210.768H111.328ZM111.971 203.213C111.75 203.213 111.559 203.139 111.4 202.991C111.244 202.841 111.166 202.662 111.166 202.454C111.166 202.244 111.244 202.065 111.4 201.917C111.559 201.767 111.75 201.691 111.971 201.691C112.193 201.691 112.382 201.767 112.538 201.917C112.697 202.065 112.777 202.244 112.777 202.454C112.777 202.662 112.697 202.841 112.538 202.991C112.382 203.139 112.193 203.213 111.971 203.213ZM117.073 210.9C116.459 210.9 115.924 210.76 115.467 210.478C115.009 210.197 114.654 209.804 114.401 209.298C114.148 208.792 114.022 208.201 114.022 207.525C114.022 206.846 114.148 206.252 114.401 205.744C114.654 205.235 115.009 204.841 115.467 204.559C115.924 204.278 116.459 204.137 117.073 204.137C117.687 204.137 118.222 204.278 118.68 204.559C119.137 204.841 119.492 205.235 119.745 205.744C119.998 206.252 120.124 206.846 120.124 207.525C120.124 208.201 119.998 208.792 119.745 209.298C119.492 209.804 119.137 210.197 118.68 210.478C118.222 210.76 117.687 210.9 117.073 210.9ZM117.077 209.831C117.475 209.831 117.805 209.725 118.066 209.515C118.327 209.305 118.521 209.025 118.646 208.676C118.773 208.326 118.837 207.941 118.837 207.521C118.837 207.103 118.773 206.72 118.646 206.37C118.521 206.018 118.327 205.735 118.066 205.522C117.805 205.309 117.475 205.203 117.077 205.203C116.677 205.203 116.344 205.309 116.08 205.522C115.819 205.735 115.624 206.018 115.496 206.37C115.371 206.72 115.309 207.103 115.309 207.521C115.309 207.941 115.371 208.326 115.496 208.676C115.624 209.025 115.819 209.305 116.08 209.515C116.344 209.725 116.677 209.831 117.077 209.831ZM122.821 206.882V210.768H121.546V204.223H122.769V205.288H122.85C123.001 204.941 123.237 204.663 123.558 204.453C123.882 204.242 124.289 204.137 124.781 204.137C125.227 204.137 125.617 204.231 125.953 204.419C126.288 204.603 126.548 204.879 126.733 205.245C126.917 205.612 127.01 206.065 127.01 206.605V210.768H125.735V206.758C125.735 206.284 125.612 205.913 125.365 205.646C125.117 205.376 124.778 205.241 124.346 205.241C124.051 205.241 123.788 205.305 123.558 205.433C123.331 205.561 123.15 205.748 123.017 205.995C122.886 206.24 122.821 206.535 122.821 206.882ZM69.7379 225.768V219.223H70.9694V220.262H71.0376C71.1569 219.91 71.3671 219.633 71.6683 219.431C71.9723 219.227 72.316 219.125 72.6995 219.125C72.7791 219.125 72.8728 219.127 72.9808 219.133C73.0916 219.139 73.1782 219.146 73.2407 219.154V220.373C73.1896 220.359 73.0987 220.343 72.968 220.326C72.8373 220.306 72.7066 220.296 72.576 220.296C72.2748 220.296 72.0063 220.36 71.7706 220.488C71.5376 220.613 71.3529 220.788 71.2166 221.012C71.0802 221.234 71.012 221.487 71.012 221.771V225.768H69.7379ZM76.93 225.9C76.2851 225.9 75.7297 225.762 75.2638 225.487C74.8007 225.208 74.4428 224.818 74.1899 224.315C73.9399 223.809 73.8149 223.217 73.8149 222.538C73.8149 221.867 73.9399 221.277 74.1899 220.765C74.4428 220.254 74.7951 219.855 75.2468 219.568C75.7013 219.281 76.2326 219.137 76.8405 219.137C77.2098 219.137 77.5678 219.198 77.9144 219.321C78.261 219.443 78.572 219.635 78.8476 219.896C79.1232 220.157 79.3405 220.497 79.4996 220.914C79.6587 221.329 79.7382 221.833 79.7382 222.427V222.879H74.5351V221.924H78.4897C78.4897 221.589 78.4215 221.292 78.2851 221.034C78.1487 220.772 77.957 220.566 77.7098 220.416C77.4655 220.265 77.1786 220.19 76.849 220.19C76.4911 220.19 76.1786 220.278 75.9115 220.454C75.6473 220.627 75.4428 220.855 75.2979 221.136C75.1559 221.414 75.0848 221.717 75.0848 222.044V222.789C75.0848 223.227 75.1615 223.599 75.3149 223.906C75.4712 224.213 75.6885 224.447 75.9669 224.609C76.2453 224.768 76.5706 224.848 76.9428 224.848C77.1843 224.848 77.4044 224.814 77.6033 224.745C77.8022 224.674 77.974 224.569 78.1189 224.43C78.2638 224.291 78.3746 224.119 78.4513 223.914L79.6573 224.132C79.5607 224.487 79.3874 224.798 79.1374 225.065C78.8902 225.329 78.5791 225.535 78.2041 225.683C77.832 225.828 77.4073 225.9 76.93 225.9ZM85.571 228.223V224.75H85.4943C85.4176 224.889 85.3068 225.048 85.1619 225.227C85.0198 225.406 84.8238 225.562 84.5738 225.696C84.3238 225.829 84 225.896 83.6022 225.896C83.0738 225.896 82.6022 225.761 82.1875 225.491C81.7755 225.218 81.4517 224.831 81.2159 224.328C80.9829 223.822 80.8664 223.216 80.8664 222.508C80.8664 221.801 80.9843 221.196 81.2201 220.693C81.4588 220.19 81.7855 219.805 82.2002 219.538C82.615 219.271 83.0852 219.137 83.6108 219.137C84.017 219.137 84.3437 219.206 84.5909 219.342C84.8409 219.475 85.034 219.632 85.1704 219.811C85.3096 219.99 85.4176 220.147 85.4943 220.284H85.6008V219.223H86.8451V228.223H85.571ZM83.8835 224.809C84.25 224.809 84.5596 224.713 84.8125 224.519C85.0681 224.323 85.2613 224.052 85.392 223.706C85.5255 223.359 85.5923 222.956 85.5923 222.495C85.5923 222.041 85.5269 221.643 85.3963 221.302C85.2656 220.961 85.0738 220.696 84.821 220.505C84.5681 220.315 84.2556 220.22 83.8835 220.22C83.5 220.22 83.1804 220.319 82.9247 220.518C82.669 220.717 82.4758 220.988 82.3451 221.332C82.2173 221.676 82.1534 222.064 82.1534 222.495C82.1534 222.933 82.2187 223.326 82.3494 223.676C82.4801 224.025 82.6733 224.302 82.9289 224.507C83.1875 224.708 83.5056 224.809 83.8835 224.809ZM92.7045 223.054V219.223H93.9829V225.768H92.7301V224.635H92.6619C92.5113 224.984 92.2698 225.275 91.9375 225.508C91.6079 225.738 91.1974 225.853 90.7059 225.853C90.2855 225.853 89.9133 225.761 89.5894 225.576C89.2684 225.389 89.0156 225.112 88.8309 224.745C88.6491 224.379 88.5582 223.926 88.5582 223.386V219.223H89.8323V223.233C89.8323 223.679 89.9559 224.034 90.2031 224.298C90.4502 224.562 90.7713 224.694 91.1661 224.694C91.4048 224.694 91.642 224.635 91.8778 224.515C92.1164 224.396 92.3139 224.216 92.4701 223.974C92.6292 223.733 92.7073 223.426 92.7045 223.054ZM98.5159 225.9C97.871 225.9 97.3157 225.762 96.8497 225.487C96.3867 225.208 96.0287 224.818 95.7759 224.315C95.5259 223.809 95.4009 223.217 95.4009 222.538C95.4009 221.867 95.5259 221.277 95.7759 220.765C96.0287 220.254 96.381 219.855 96.8327 219.568C97.2872 219.281 97.8185 219.137 98.4264 219.137C98.7958 219.137 99.1537 219.198 99.5003 219.321C99.8469 219.443 100.158 219.635 100.434 219.896C100.709 220.157 100.926 220.497 101.086 220.914C101.245 221.329 101.324 221.833 101.324 222.427V222.879H96.121V221.924H100.076C100.076 221.589 100.007 221.292 99.871 221.034C99.7347 220.772 99.5429 220.566 99.2958 220.416C99.0514 220.265 98.7645 220.19 98.435 220.19C98.077 220.19 97.7645 220.278 97.4975 220.454C97.2333 220.627 97.0287 220.855 96.8838 221.136C96.7418 221.414 96.6708 221.717 96.6708 222.044V222.789C96.6708 223.227 96.7475 223.599 96.9009 223.906C97.0571 224.213 97.2745 224.447 97.5529 224.609C97.8313 224.768 98.1566 224.848 98.5287 224.848C98.7702 224.848 98.9904 224.814 99.1892 224.745C99.3881 224.674 99.56 224.569 99.7049 224.43C99.8497 224.291 99.9605 224.119 100.037 223.914L101.243 224.132C101.147 224.487 100.973 224.798 100.723 225.065C100.476 225.329 100.165 225.535 99.7901 225.683C99.4179 225.828 98.9932 225.9 98.5159 225.9ZM107.643 220.821L106.488 221.025C106.44 220.877 106.363 220.737 106.258 220.603C106.155 220.47 106.016 220.36 105.84 220.275C105.664 220.19 105.444 220.147 105.18 220.147C104.819 220.147 104.518 220.228 104.276 220.39C104.035 220.549 103.914 220.755 103.914 221.008C103.914 221.227 103.995 221.403 104.157 221.537C104.319 221.67 104.58 221.779 104.941 221.865L105.981 222.103C106.583 222.242 107.032 222.457 107.327 222.747C107.623 223.037 107.771 223.413 107.771 223.876C107.771 224.268 107.657 224.617 107.43 224.924C107.205 225.228 106.891 225.467 106.488 225.64C106.087 225.814 105.623 225.9 105.094 225.9C104.361 225.9 103.763 225.744 103.3 225.431C102.837 225.116 102.553 224.669 102.448 224.089L103.68 223.902C103.756 224.223 103.914 224.466 104.153 224.63C104.391 224.792 104.702 224.873 105.086 224.873C105.504 224.873 105.837 224.787 106.087 224.613C106.337 224.437 106.462 224.223 106.462 223.97C106.462 223.765 106.386 223.593 106.232 223.454C106.082 223.315 105.85 223.21 105.538 223.139L104.43 222.896C103.819 222.757 103.367 222.535 103.075 222.231C102.785 221.927 102.64 221.542 102.64 221.076C102.64 220.69 102.748 220.352 102.964 220.062C103.18 219.772 103.478 219.546 103.859 219.385C104.239 219.22 104.675 219.137 105.167 219.137C105.874 219.137 106.431 219.291 106.837 219.598C107.244 219.902 107.512 220.309 107.643 220.821ZM112.227 219.223V220.245H108.652V219.223H112.227ZM109.61 217.654H110.885V223.846C110.885 224.093 110.921 224.279 110.995 224.404C111.069 224.527 111.164 224.61 111.281 224.656C111.4 224.698 111.529 224.72 111.669 224.72C111.771 224.72 111.86 224.713 111.937 224.698C112.014 224.684 112.073 224.673 112.116 224.664L112.346 225.717C112.272 225.745 112.167 225.774 112.031 225.802C111.894 225.833 111.724 225.85 111.519 225.853C111.184 225.859 110.872 225.799 110.582 225.674C110.292 225.549 110.058 225.356 109.879 225.095C109.7 224.833 109.61 224.505 109.61 224.11V217.654ZM116.387 225.9C115.742 225.9 115.187 225.762 114.721 225.487C114.258 225.208 113.9 224.818 113.647 224.315C113.397 223.809 113.272 223.217 113.272 222.538C113.272 221.867 113.397 221.277 113.647 220.765C113.9 220.254 114.252 219.855 114.704 219.568C115.158 219.281 115.69 219.137 116.298 219.137C116.667 219.137 117.025 219.198 117.371 219.321C117.718 219.443 118.029 219.635 118.305 219.896C118.58 220.157 118.798 220.497 118.957 220.914C119.116 221.329 119.195 221.833 119.195 222.427V222.879H113.992V221.924H117.947C117.947 221.589 117.879 221.292 117.742 221.034C117.606 220.772 117.414 220.566 117.167 220.416C116.923 220.265 116.636 220.19 116.306 220.19C115.948 220.19 115.636 220.278 115.369 220.454C115.104 220.627 114.9 220.855 114.755 221.136C114.613 221.414 114.542 221.717 114.542 222.044V222.789C114.542 223.227 114.619 223.599 114.772 223.906C114.928 224.213 115.146 224.447 115.424 224.609C115.702 224.768 116.028 224.848 116.4 224.848C116.641 224.848 116.861 224.814 117.06 224.745C117.259 224.674 117.431 224.569 117.576 224.43C117.721 224.291 117.832 224.119 117.908 223.914L119.114 224.132C119.018 224.487 118.844 224.798 118.594 225.065C118.347 225.329 118.036 225.535 117.661 225.683C117.289 225.828 116.864 225.9 116.387 225.9ZM123.059 225.896C122.531 225.896 122.059 225.761 121.644 225.491C121.233 225.218 120.909 224.831 120.673 224.328C120.44 223.822 120.323 223.216 120.323 222.508C120.323 221.801 120.441 221.196 120.677 220.693C120.916 220.19 121.242 219.805 121.657 219.538C122.072 219.271 122.542 219.137 123.068 219.137C123.474 219.137 123.801 219.206 124.048 219.342C124.298 219.475 124.491 219.632 124.627 219.811C124.767 219.99 124.875 220.147 124.951 220.284H125.028V217.041H126.302V225.768H125.058V224.75H124.951C124.875 224.889 124.764 225.048 124.619 225.227C124.477 225.406 124.281 225.562 124.031 225.696C123.781 225.829 123.457 225.896 123.059 225.896ZM123.341 224.809C123.707 224.809 124.017 224.713 124.269 224.519C124.525 224.323 124.718 224.052 124.849 223.706C124.983 223.359 125.049 222.956 125.049 222.495C125.049 222.041 124.984 221.643 124.853 221.302C124.723 220.961 124.531 220.696 124.278 220.505C124.025 220.315 123.713 220.22 123.341 220.22C122.957 220.22 122.637 220.319 122.382 220.518C122.126 220.717 121.933 220.988 121.802 221.332C121.674 221.676 121.61 222.064 121.61 222.495C121.61 222.933 121.676 223.326 121.806 223.676C121.937 224.025 122.13 224.302 122.386 224.507C122.644 224.708 122.963 224.809 123.341 224.809Z" fill="#6F7373"/>
<path d="M19.231 210.389C18.67 210.386 18.1906 210.238 17.7928 209.945C17.3951 209.651 17.0909 209.224 16.8802 208.663C16.6695 208.102 16.5641 207.426 16.5641 206.635C16.5641 205.847 16.6695 205.173 16.8802 204.615C17.0933 204.056 17.3987 203.63 17.7964 203.336C18.1965 203.043 18.6747 202.896 19.231 202.896C19.7874 202.896 20.2644 203.044 20.6622 203.34C21.0599 203.633 21.3641 204.059 21.5748 204.618C21.7879 205.175 21.8944 205.847 21.8944 206.635C21.8944 207.428 21.789 208.105 21.5783 208.667C21.3676 209.225 21.0634 209.653 20.6657 209.948C20.268 210.242 19.7898 210.389 19.231 210.389ZM19.231 209.441C19.7235 209.441 20.1082 209.2 20.3852 208.72C20.6645 208.239 20.8042 207.544 20.8042 206.635C20.8042 206.032 20.7403 205.521 20.6124 205.105C20.487 204.686 20.3059 204.368 20.0691 204.153C19.8347 203.935 19.5554 203.826 19.231 203.826C18.741 203.826 18.3563 204.068 18.0769 204.551C17.7976 205.034 17.6567 205.729 17.6543 206.635C17.6543 207.241 17.7171 207.754 17.8426 208.173C17.9704 208.59 18.1515 208.906 18.3859 209.121C18.6203 209.334 18.902 209.441 19.231 209.441ZM25.5725 202.896C25.8968 202.898 26.2164 202.957 26.5313 203.073C26.8462 203.189 27.1303 203.379 27.3836 203.642C27.6392 203.904 27.8428 204.26 27.9944 204.707C28.1482 205.152 28.2264 205.706 28.2287 206.369C28.2287 207.006 28.1648 207.573 28.037 208.07C27.9091 208.565 27.7257 208.983 27.4866 209.323C27.2498 209.664 26.9622 209.924 26.6236 210.101C26.2851 210.279 25.9039 210.367 25.4802 210.367C25.0469 210.367 24.6622 210.282 24.326 210.112C23.9899 209.941 23.7164 209.706 23.5057 209.405C23.295 209.102 23.1636 208.754 23.1116 208.361H24.1946C24.2657 208.674 24.4101 208.927 24.6279 209.121C24.8481 209.313 25.1321 209.409 25.4802 209.409C26.0128 209.409 26.4283 209.177 26.7266 208.713C27.0249 208.246 27.1752 207.595 27.1776 206.76H27.1208C26.9977 206.963 26.8438 207.138 26.6591 207.285C26.4768 207.432 26.2721 207.546 26.0448 207.626C25.8175 207.707 25.5749 207.747 25.3168 207.747C24.8978 207.747 24.5166 207.644 24.1733 207.438C23.8301 207.232 23.5566 206.949 23.353 206.589C23.1494 206.229 23.0476 205.818 23.0476 205.357C23.0476 204.898 23.1518 204.481 23.3601 204.107C23.5708 203.733 23.8644 203.437 24.2408 203.219C24.6196 202.999 25.0635 202.891 25.5725 202.896ZM25.576 203.819C25.2991 203.819 25.0493 203.888 24.8267 204.025C24.6066 204.16 24.4326 204.344 24.3047 204.576C24.1769 204.805 24.113 205.061 24.113 205.343C24.113 205.624 24.1745 205.88 24.2976 206.11C24.4231 206.337 24.5936 206.518 24.809 206.653C25.0268 206.786 25.2754 206.852 25.5547 206.852C25.7631 206.852 25.9572 206.812 26.1371 206.731C26.317 206.651 26.4745 206.539 26.6094 206.397C26.7444 206.253 26.8497 206.09 26.9255 205.907C27.0012 205.725 27.0391 205.533 27.0391 205.332C27.0391 205.064 26.9752 204.816 26.8473 204.586C26.7219 204.357 26.5491 204.172 26.3289 204.032C26.1087 203.89 25.8578 203.819 25.576 203.819ZM30.2254 209.366C30.0312 209.366 29.8643 209.297 29.7247 209.16C29.585 209.02 29.5151 208.852 29.5151 208.656C29.5151 208.462 29.585 208.296 29.7247 208.159C29.8643 208.019 30.0312 207.949 30.2254 207.949C30.4195 207.949 30.5864 208.019 30.7261 208.159C30.8658 208.296 30.9356 208.462 30.9356 208.656C30.9356 208.786 30.9024 208.906 30.8362 209.015C30.7722 209.121 30.687 209.206 30.5805 209.27C30.4739 209.334 30.3556 209.366 30.2254 209.366ZM30.2254 205.723C30.0312 205.723 29.8643 205.654 29.7247 205.517C29.585 205.377 29.5151 205.209 29.5151 205.012C29.5151 204.818 29.585 204.653 29.7247 204.515C29.8643 204.376 30.0312 204.306 30.2254 204.306C30.4195 204.306 30.5864 204.376 30.7261 204.515C30.8658 204.653 30.9356 204.818 30.9356 205.012C30.9356 205.143 30.9024 205.262 30.8362 205.371C30.7722 205.478 30.687 205.563 30.5805 205.627C30.4739 205.691 30.3556 205.723 30.2254 205.723ZM35.1028 202.995V210.268H34.002V204.096H33.9594L32.2193 205.233V204.181L34.034 202.995H35.1028ZM39.5276 210.367C39.0186 210.367 38.5688 210.28 38.1781 210.105C37.7899 209.93 37.4857 209.688 37.2655 209.38C37.0453 209.073 36.9364 208.722 36.9388 208.329C36.9364 208.021 36.9992 207.738 37.127 207.48C37.2572 207.22 37.4336 207.003 37.6561 206.831C37.8787 206.655 38.1272 206.544 38.4019 206.497V206.454C38.0396 206.367 37.7496 206.172 37.5318 205.872C37.314 205.571 37.2063 205.225 37.2087 204.835C37.2063 204.463 37.3046 204.132 37.5034 203.841C37.7046 203.547 37.9805 203.316 38.3308 203.148C38.6812 202.98 39.0801 202.896 39.5276 202.896C39.9703 202.896 40.3656 202.981 40.7136 203.152C41.064 203.32 41.3398 203.55 41.5411 203.844C41.7423 204.135 41.8441 204.466 41.8465 204.835C41.8441 205.225 41.7328 205.571 41.5127 205.872C41.2925 206.172 41.006 206.367 40.6533 206.454V206.497C40.9255 206.544 41.1706 206.655 41.3884 206.831C41.6085 207.003 41.7837 207.22 41.9139 207.48C42.0465 207.738 42.114 208.021 42.1163 208.329C42.114 208.722 42.0027 209.073 41.7825 209.38C41.5624 209.688 41.257 209.93 40.8663 210.105C40.4781 210.28 40.0318 210.367 39.5276 210.367ZM39.5276 209.469C39.8282 209.469 40.0886 209.419 40.3088 209.32C40.529 209.218 40.6994 209.077 40.8202 208.897C40.9409 208.715 41.0025 208.502 41.0048 208.258C41.0025 208.005 40.9362 207.781 40.806 207.587C40.6781 207.393 40.5041 207.24 40.284 207.129C40.0638 207.018 39.8117 206.962 39.5276 206.962C39.2411 206.962 38.9866 207.018 38.7641 207.129C38.5415 207.24 38.3663 207.393 38.2385 207.587C38.1107 207.781 38.0479 208.005 38.0503 208.258C38.0479 208.502 38.1059 208.715 38.2243 208.897C38.345 209.077 38.5167 209.218 38.7392 209.32C38.9618 209.419 39.2245 209.469 39.5276 209.469ZM39.5276 206.085C39.769 206.085 39.9833 206.036 40.1703 205.939C40.3573 205.842 40.5041 205.707 40.6107 205.534C40.7196 205.362 40.7752 205.159 40.7776 204.927C40.7752 204.7 40.7207 204.501 40.6142 204.331C40.51 204.16 40.3645 204.029 40.1774 203.936C39.9904 203.842 39.7738 203.794 39.5276 203.794C39.2766 203.794 39.0564 203.842 38.8671 203.936C38.68 204.029 38.5344 204.16 38.4303 204.331C38.3261 204.501 38.2752 204.7 38.2776 204.927C38.2752 205.159 38.3273 205.362 38.4338 205.534C38.5403 205.707 38.6871 205.842 38.8742 205.939C39.0636 206.036 39.2814 206.085 39.5276 206.085Z" fill="#494D4D"/>
<circle cx="56.7053" cy="206.268" r="4.5" fill="url(#paint3_linear_768_2)"/>
<g filter="url(#filter0_f_768_2)">
<rect x="-11.9414" y="210.551" width="193.364" height="23.0021" transform="rotate(2.72923 -11.9414 210.551)" fill="white"/>
</g>
</g>
<defs>
<filter id="filter0_f_768_2" x="-23.0366" y="200.551" width="214.24" height="52.1831" filterUnits="userSpaceOnUse" color-interpolation-filters="sRGB">
<feFlood flood-opacity="0" result="BackgroundImageFix"/>
<feBlend mode="normal" in="SourceGraphic" in2="BackgroundImageFix" result="shape"/>
<feGaussianBlur stdDeviation="5" result="effect1_foregroundBlur_768_2"/>
</filter>
<linearGradient id="paint0_linear_768_2" x1="56.7046" y1="55.4434" x2="56.7046" y2="64.4434" gradientUnits="userSpaceOnUse">
<stop stop-color="#3A383F"/>
<stop offset="1" stop-color="#100F12"/>
</linearGradient>
<linearGradient id="paint1_linear_768_2" x1="56.7053" y1="108.605" x2="56.7053" y2="117.605" gradientUnits="userSpaceOnUse">
<stop stop-color="#3A383F"/>
<stop offset="1" stop-color="#100F12"/>
</linearGradient>
<linearGradient id="paint2_linear_768_2" x1="56.7056" y1="148.605" x2="56.7056" y2="157.605" gradientUnits="userSpaceOnUse">
<stop stop-color="#3A383F"/>
<stop offset="1" stop-color="#100F12"/>
</linearGradient>
<linearGradient id="paint3_linear_768_2" x1="56.7053" y1="201.768" x2="56.7053" y2="210.768" gradientUnits="userSpaceOnUse">
<stop stop-color="#3A383F"/>
<stop offset="1" stop-color="#100F12"/>
</linearGradient>
</defs>
</svg>
