<svg width="1199" height="162" viewBox="0 0 1199 162" fill="none" xmlns="http://www.w3.org/2000/svg">
<path d="M120.062 159.343L108.078 125.166H46.1606L33.9547 159.343H2.6442e-05L59.92 -4.34282e-06H96.7597L156.236 159.343H120.062ZM77.4522 36.8397L55.7034 98.3132H98.757L77.4522 36.8397ZM240.776 109.409V40.8344H271.401V159.343H243.217V143.808C236.781 154.238 223.687 161.562 208.596 161.562C184.85 161.562 167.54 147.137 167.54 116.289V40.8344H198.388V110.297C198.388 126.942 206.599 134.265 219.027 134.265C230.123 134.265 240.776 125.388 240.776 109.409ZM372.797 129.383V156.236C365.252 160.009 358.15 161.562 349.051 161.562C324.639 161.562 309.327 147.581 309.327 120.95V67.2435H285.359V40.8344H309.327V5.77007H339.952V40.8344H373.907V67.2435H339.952V113.848C339.952 127.607 346.166 133.156 357.262 133.156C363.033 133.156 368.359 131.824 372.797 129.383ZM442.517 161.562C408.118 161.562 382.375 134.487 382.375 100.089C382.375 65.4681 408.118 38.6151 442.517 38.6151C476.915 38.6151 502.659 65.4681 502.659 100.089C502.659 134.487 476.915 161.562 442.517 161.562ZM442.517 134.265C457.83 134.265 470.923 122.059 470.923 100.089C470.923 78.1179 457.83 66.1339 442.517 66.1339C427.204 66.1339 414.11 78.1179 414.11 100.089C414.11 122.059 427.204 134.265 442.517 134.265ZM553.192 159.343H522.344V40.8344H550.751V57.7007C559.406 45.7167 570.502 38.6151 586.259 38.6151C602.459 38.6151 614.887 46.1606 620.879 59.6981C630.2 46.6044 642.184 38.6151 659.938 38.6151C683.906 38.6151 700.107 54.3718 700.107 82.7783V159.343H669.481V92.5431C669.481 75.8986 662.379 65.912 648.842 65.912C636.636 65.912 626.649 75.4548 626.649 93.2089V159.343H596.024V92.5431C596.024 75.8986 588.922 65.912 575.384 65.912C562.957 65.912 553.192 75.4548 553.192 93.2089V159.343ZM797.071 159.343V144.696C789.304 155.792 777.542 161.562 761.341 161.562C736.707 161.562 720.285 147.137 720.285 124.944C720.285 101.864 738.926 89.4361 773.547 89.4361C780.205 89.4361 785.975 89.88 793.298 90.7677V83.6661C793.298 70.3505 785.753 62.5831 772.881 62.5831C759.566 62.5831 751.576 70.3505 750.467 83.6661H722.726C724.501 56.3692 744.253 38.6151 772.881 38.6151C803.951 38.6151 822.149 55.7034 822.149 84.7757V159.343H797.071ZM749.357 124.057C749.357 134.043 756.459 140.257 767.999 140.257C783.755 140.257 793.298 131.602 793.298 117.843V109.409C785.975 108.3 780.87 107.856 775.544 107.856C758.012 107.856 749.357 113.404 749.357 124.057ZM920.677 129.383V156.236C913.131 160.009 906.03 161.562 896.931 161.562C872.519 161.562 857.206 147.581 857.206 120.95V67.2435H833.238V40.8344H857.206V5.77007H887.832V40.8344H921.786V67.2435H887.832V113.848C887.832 127.607 894.046 133.156 905.142 133.156C910.912 133.156 916.238 131.824 920.677 129.383ZM989.508 161.34C954 161.34 930.254 136.706 930.254 99.6447C930.254 64.3585 954.888 38.6151 989.065 38.6151C1026.57 38.6151 1051.43 69.0189 1045.88 107.634H961.768C963.765 126.942 973.086 137.594 988.843 137.594C1002.38 137.594 1011.48 130.936 1015.03 119.174H1045.66C1039 146.027 1018.36 161.34 989.508 161.34ZM988.399 61.2515C973.974 61.2515 964.875 70.5724 962.212 88.1046H1013.25C1012.37 71.6821 1003.05 61.2515 988.399 61.2515ZM1088.71 159.343H1049.21L1099.14 77.896L1054.31 -4.34282e-06H1093.6L1124.66 57.0349L1157.73 -4.34282e-06H1195.46L1149.08 79.2275L1198.34 159.343H1158.62L1123.78 99.4228L1088.71 159.343Z" fill="url(#paint0_linear_760_8)"/>
<defs>
<linearGradient id="paint0_linear_760_8" x1="535.196" y1="-38.4154" x2="537.765" y2="160.334" gradientUnits="userSpaceOnUse">
<stop stop-color="white" stop-opacity="0.9"/>
<stop offset="1" stop-color="white" stop-opacity="0"/>
</linearGradient>
</defs>
</svg>
